G04 DipTrace 4.2.0.1*
G04 2 - Bottom.gbr*
%MOMM*%
G04 #@! TF.FileFunction,Copper,L2,Bot*
G04 #@! TF.Part,Single*
G04 #@! TA.AperFunction,CopperBalancing*
%ADD15C,0.635*%
%ADD16C,0.33*%
G04 #@! TA.AperFunction,ComponentPad*
%ADD17C,1.6*%
%ADD18R,1.6X1.6*%
%ADD20R,1.95X1.95*%
%ADD21C,1.95*%
%ADD22R,1.782X1.062*%
%ADD23O,1.782X1.062*%
%ADD24C,1.27*%
%ADD25C,1.27*%
%FSLAX35Y35*%
G04*
G71*
G90*
G75*
G01*
G04 Bottom*
%LPD*%
X1140010Y6704523D2*
D15*
X1327101D1*
X1692672D2*
X2442088D1*
X2617711D2*
X2860174D1*
X3199586D2*
X3839080D1*
X4014704D2*
X4257166D1*
X4596579D2*
X5467218D1*
X5688551D2*
X5908182D1*
X6247594D2*
X6887088D1*
X7062711D2*
X7305174D1*
X7644586D2*
X8312108D1*
X8677679D2*
X8863768D1*
X1140010Y6641357D2*
X1268905D1*
X1750869D2*
X2380246D1*
X2679554D2*
X2860174D1*
X3199586D2*
X3777238D1*
X4076546D2*
X4257166D1*
X4596579D2*
X5420643D1*
X5735127D2*
X5908182D1*
X6247594D2*
X6825246D1*
X7124554D2*
X7305174D1*
X7644586D2*
X8253911D1*
X8735875D2*
X8863768D1*
X1140010Y6578190D2*
X1237095D1*
X1782679D2*
X2360923D1*
X2698877D2*
X2860174D1*
X3199586D2*
X3757915D1*
X4095869D2*
X4257166D1*
X4596579D2*
X5408202D1*
X5747568D2*
X5908182D1*
X6247594D2*
X6805923D1*
X7143877D2*
X7305174D1*
X7644586D2*
X8222101D1*
X8767685D2*
X8863768D1*
X1140010Y6515023D2*
X1222557D1*
X1797217D2*
X2367394D1*
X2692405D2*
X2860174D1*
X3199586D2*
X3764386D1*
X4089398D2*
X4257166D1*
X4596579D2*
X5421144D1*
X5734625D2*
X5908182D1*
X6247594D2*
X6812394D1*
X7137405D2*
X7305174D1*
X7644586D2*
X8207564D1*
X8782223D2*
X8863768D1*
X1140010Y6451857D2*
X1222557D1*
X1797217D2*
X2403761D1*
X2655993D2*
X2860174D1*
X3199586D2*
X3800754D1*
X4052985D2*
X4257166D1*
X4596579D2*
X5468768D1*
X5687002D2*
X5908182D1*
X6247594D2*
X6848761D1*
X7100993D2*
X7305174D1*
X7644586D2*
X8207564D1*
X8782223D2*
X8863768D1*
X1140010Y6388690D2*
X1237186D1*
X1782588D2*
X8222192D1*
X8767594D2*
X8863768D1*
X1140010Y6325523D2*
X1269087D1*
X1750687D2*
X8254093D1*
X8735693D2*
X8863768D1*
X1140010Y6262357D2*
X1327420D1*
X1692353D2*
X8312427D1*
X8677360D2*
X8863768D1*
X1140010Y6199190D2*
X8863768D1*
X1140010Y6136023D2*
X8863768D1*
X1140010Y6072857D2*
X8863768D1*
X1140010Y6009690D2*
X8863768D1*
X1140010Y5946523D2*
X8863768D1*
X1140010Y5883357D2*
X8863768D1*
X1140010Y5820190D2*
X8863768D1*
X1140010Y5757023D2*
X8863768D1*
X1140010Y5693857D2*
X8863768D1*
X1140010Y5630690D2*
X8863768D1*
X1140010Y5567523D2*
X8863768D1*
X1140010Y5504357D2*
X8863768D1*
X1140010Y5441190D2*
X8863768D1*
X1140010Y5378023D2*
X8863768D1*
X1140010Y5314857D2*
X8863768D1*
X1140010Y5251690D2*
X1276698D1*
X1616064D2*
X3167655D1*
X3340407D2*
X4640845D1*
X4813597D2*
X6281242D1*
X6453994D2*
X8427407D1*
X8689346D2*
X8863768D1*
X1140010Y5188523D2*
X1276698D1*
X1616064D2*
X3124178D1*
X3383883D2*
X4597368D1*
X4857073D2*
X6237765D1*
X6497471D2*
X8394321D1*
X8722477D2*
X8863768D1*
X1140010Y5125357D2*
X1276698D1*
X1616064D2*
X3120715D1*
X3387347D2*
X3838442D1*
X4142809D2*
X4593905D1*
X4860537D2*
X6234302D1*
X6500934D2*
X8389992D1*
X8726761D2*
X8863768D1*
X1140010Y5062190D2*
X1276698D1*
X1616064D2*
X3152752D1*
X3355264D2*
X3838442D1*
X4142809D2*
X4625942D1*
X4828499D2*
X6266385D1*
X6468896D2*
X8411867D1*
X8704886D2*
X8863768D1*
X1140010Y4999023D2*
X1276698D1*
X1616064D2*
X3838442D1*
X4142809D2*
X5522225D1*
X5726058D2*
X8480910D1*
X8635889D2*
X8863768D1*
X1140010Y4935857D2*
X3838442D1*
X4142809D2*
X5469679D1*
X5778558D2*
X8863768D1*
X1140010Y4872690D2*
X5465122D1*
X5783115D2*
X8863768D1*
X1140010Y4809523D2*
X5469907D1*
X5778330D2*
X8863768D1*
X1140010Y4746357D2*
X1311105D1*
X1581657D2*
X5462843D1*
X5785439D2*
X8388670D1*
X8728083D2*
X8863768D1*
X1140010Y4683190D2*
X1280981D1*
X1611826D2*
X5462843D1*
X5785439D2*
X8388670D1*
X8728083D2*
X8863768D1*
X1140010Y4620023D2*
X1278794D1*
X1614014D2*
X3883013D1*
X4098239D2*
X5462843D1*
X5785439D2*
X8388670D1*
X8728083D2*
X8863768D1*
X1140010Y4556857D2*
X1303175D1*
X1589586D2*
X3844549D1*
X4136702D2*
X5462843D1*
X5785439D2*
X8388670D1*
X8728083D2*
X8863768D1*
X1140010Y4493690D2*
X1381151D1*
X1511611D2*
X3173032D1*
X3335029D2*
X3839992D1*
X4141260D2*
X4646222D1*
X4808265D2*
X6286619D1*
X6448662D2*
X8388670D1*
X8728083D2*
X8863768D1*
X1140010Y4430523D2*
X3125500D1*
X3382562D2*
X3865422D1*
X4115830D2*
X4598690D1*
X4855752D2*
X6239087D1*
X6496149D2*
X8863768D1*
X1140010Y4367357D2*
X3119985D1*
X3388076D2*
X4593175D1*
X4861266D2*
X6233618D1*
X6501663D2*
X8863768D1*
X1140010Y4304190D2*
X3149198D1*
X3358864D2*
X4622388D1*
X4832054D2*
X6262830D1*
X6472451D2*
X8863768D1*
X1140010Y4241023D2*
X8863768D1*
X1140010Y4177857D2*
X8863768D1*
X1140010Y4114690D2*
X8863768D1*
X1140010Y4051523D2*
X8863768D1*
X1140010Y3988357D2*
X8863768D1*
X1140010Y3925190D2*
X3159816D1*
X3380556D2*
X4633006D1*
X4853792D2*
X6273403D1*
X6494189D2*
X8863768D1*
X1140010Y3862023D2*
X3135207D1*
X3405166D2*
X3854575D1*
X4158987D2*
X4608397D1*
X4878356D2*
X6248840D1*
X6518753D2*
X8863768D1*
X1140010Y3798857D2*
X3144321D1*
X3396051D2*
X3854575D1*
X4158987D2*
X4617511D1*
X4869241D2*
X6257909D1*
X6509684D2*
X8863768D1*
X1140010Y3735690D2*
X3200239D1*
X3340133D2*
X3854575D1*
X4158987D2*
X4673429D1*
X4813369D2*
X6313827D1*
X6453766D2*
X8863768D1*
X1140010Y3672523D2*
X3854575D1*
X4158987D2*
X5508325D1*
X5772269D2*
X8863768D1*
X1140010Y3609357D2*
X3854575D1*
X4158987D2*
X5479933D1*
X5800615D2*
X8863768D1*
X1140010Y3546190D2*
X5489139D1*
X5791409D2*
X8863768D1*
X1140010Y3483023D2*
X1276698D1*
X1616064D2*
X5480024D1*
X5800524D2*
X8470109D1*
X8678408D2*
X8863768D1*
X1140010Y3419857D2*
X1276698D1*
X1616064D2*
X5478976D1*
X5801572D2*
X8419250D1*
X8729267D2*
X8863768D1*
X1140010Y3356690D2*
X1276698D1*
X1616064D2*
X3973657D1*
X4039905D2*
X5478976D1*
X5801572D2*
X8404621D1*
X8743896D2*
X8863768D1*
X1140010Y3293523D2*
X1276698D1*
X1616064D2*
X3878638D1*
X4134971D2*
X5478976D1*
X5801572D2*
X8415467D1*
X8733050D2*
X8863768D1*
X1140010Y3230357D2*
X1276698D1*
X1616064D2*
X3855578D1*
X4157985D2*
X5478976D1*
X5801572D2*
X8459080D1*
X8689437D2*
X8863768D1*
X1140010Y3167190D2*
X3162869D1*
X3377503D2*
X3862095D1*
X4151514D2*
X4636105D1*
X4850693D2*
X6276502D1*
X6491090D2*
X8863768D1*
X1140010Y3104023D2*
X3135708D1*
X3404665D2*
X3903885D1*
X4109723D2*
X4608898D1*
X4877855D2*
X6249295D1*
X6518297D2*
X8863768D1*
X1140010Y3040857D2*
X3142726D1*
X3397646D2*
X4615962D1*
X4870836D2*
X6256359D1*
X6511234D2*
X8863768D1*
X1140010Y2977690D2*
X1335487D1*
X1557321D2*
X3193631D1*
X3346741D2*
X4666821D1*
X4819977D2*
X6307218D1*
X6460374D2*
X8404575D1*
X8743942D2*
X8863768D1*
X1140010Y2914523D2*
X1289048D1*
X1603714D2*
X8404575D1*
X8743942D2*
X8863768D1*
X1140010Y2851357D2*
X1276698D1*
X1616110D2*
X8404575D1*
X8743942D2*
X8863768D1*
X1140010Y2788190D2*
X1289731D1*
X1603030D2*
X8404575D1*
X8743942D2*
X8863768D1*
X1140010Y2725023D2*
X1337537D1*
X1555270D2*
X8404575D1*
X8743942D2*
X8863768D1*
X1140010Y2661857D2*
X8863768D1*
X1140010Y2598690D2*
X8863768D1*
X1140010Y2535523D2*
X8863768D1*
X1140010Y2472357D2*
X8863768D1*
X1140010Y2409190D2*
X8863768D1*
X1140010Y2346023D2*
X8863768D1*
X1140010Y2282857D2*
X8863768D1*
X1140010Y2219690D2*
X8863768D1*
X1140010Y2156523D2*
X8863768D1*
X1140010Y2093357D2*
X8863768D1*
X1140010Y2030190D2*
X8863768D1*
X1140010Y1967023D2*
X8863768D1*
X1140010Y1903857D2*
X8863768D1*
X1140010Y1840690D2*
X8863768D1*
X1140010Y1777523D2*
X1399289D1*
X1620485D2*
X8384295D1*
X8605491D2*
X8863768D1*
X1140010Y1714357D2*
X1303358D1*
X1716461D2*
X8288319D1*
X8701422D2*
X8863768D1*
X1140010Y1651190D2*
X1255916D1*
X1763857D2*
X8240923D1*
X8748864D2*
X8863768D1*
X1140010Y1588023D2*
X1230487D1*
X1789333D2*
X8215448D1*
X8774293D2*
X8863768D1*
X1140010Y1524857D2*
X1220962D1*
X1798812D2*
X8205968D1*
X8783818D2*
X8863768D1*
X1140010Y1461690D2*
X1225793D1*
X1793981D2*
X8210799D1*
X8778987D2*
X8863768D1*
X1140010Y1398523D2*
X1245754D1*
X1774020D2*
X8230760D1*
X8759027D2*
X8863768D1*
X1140010Y1335357D2*
X1284946D1*
X1734827D2*
X8269953D1*
X8719834D2*
X8863768D1*
X1140010Y1272190D2*
X1358136D1*
X1661637D2*
X8343143D1*
X8646644D2*
X8863768D1*
X4136269Y4507293D2*
X4135649Y4499552D1*
X4134618Y4491856D1*
X4133179Y4484225D1*
X4131335Y4476682D1*
X4129093Y4469248D1*
X4126458Y4461943D1*
X4123438Y4454789D1*
X4120042Y4447806D1*
X4116279Y4441014D1*
X4112159Y4434431D1*
X4107695Y4428077D1*
X4102900Y4421970D1*
X4097786Y4416126D1*
X4092368Y4410563D1*
X4086662Y4405297D1*
X4080684Y4400341D1*
X4074450Y4395711D1*
X4067979Y4391419D1*
X4061288Y4387477D1*
X4054398Y4383897D1*
X4047326Y4380689D1*
X4040094Y4377862D1*
X4032721Y4375423D1*
X4025230Y4373381D1*
X4017640Y4371740D1*
X4009973Y4370506D1*
X4002252Y4369681D1*
X3994498Y4369268D1*
X3986733Y4369269D1*
X3978978Y4369683D1*
X3971257Y4370509D1*
X3963591Y4371744D1*
X3956001Y4373387D1*
X3948510Y4375430D1*
X3941138Y4377870D1*
X3933906Y4380698D1*
X3926835Y4383907D1*
X3919945Y4387488D1*
X3913255Y4391431D1*
X3906785Y4395724D1*
X3900552Y4400355D1*
X3894574Y4405312D1*
X3888869Y4410580D1*
X3883452Y4416144D1*
X3878339Y4421988D1*
X3873544Y4428096D1*
X3869082Y4434451D1*
X3864963Y4441034D1*
X3861201Y4447827D1*
X3857806Y4454810D1*
X3854787Y4461965D1*
X3852154Y4469270D1*
X3849912Y4476705D1*
X3848070Y4484248D1*
X3846632Y4491879D1*
X3845602Y4499575D1*
X3844983Y4507316D1*
X3844777Y4515078D1*
X3844984Y4522841D1*
X3845604Y4530581D1*
X3846636Y4538278D1*
X3848075Y4545908D1*
X3849918Y4553452D1*
X3852161Y4560886D1*
X3854796Y4568190D1*
X3857816Y4575344D1*
X3861212Y4582327D1*
X3864975Y4589120D1*
X3869094Y4595702D1*
X3873558Y4602056D1*
X3878354Y4608164D1*
X3883468Y4614007D1*
X3888886Y4619570D1*
X3894592Y4624837D1*
X3900570Y4629793D1*
X3906804Y4634423D1*
X3913275Y4638715D1*
X3919965Y4642657D1*
X3926856Y4646237D1*
X3933928Y4649445D1*
X3941160Y4652272D1*
X3948532Y4654710D1*
X3956024Y4656753D1*
X3963614Y4658393D1*
X3971280Y4659628D1*
X3979002Y4660453D1*
X3986756Y4660865D1*
X3994521D1*
X4002275Y4660451D1*
X4009996Y4659625D1*
X4017663Y4658389D1*
X4025252Y4656747D1*
X4032744Y4654703D1*
X4040116Y4652264D1*
X4047348Y4649436D1*
X4054419Y4646226D1*
X4061309Y4642645D1*
X4067999Y4638703D1*
X4074469Y4634410D1*
X4080702Y4629778D1*
X4086679Y4624822D1*
X4092385Y4619554D1*
X4097802Y4613990D1*
X4102915Y4608146D1*
X4107709Y4602038D1*
X4112172Y4595683D1*
X4116290Y4589100D1*
X4120052Y4582307D1*
X4123448Y4575323D1*
X4126466Y4568169D1*
X4129100Y4560864D1*
X4131341Y4553429D1*
X4133184Y4545886D1*
X4134622Y4538255D1*
X4135652Y4530558D1*
X4136271Y4522818D1*
X4136477Y4515067D1*
X4136269Y4507293D1*
X3868110Y5168917D2*
X4136477D1*
Y4877217D1*
X3844777D1*
Y5168917D1*
X3868110D1*
X4152433Y3205546D2*
X4151813Y3197806D1*
X4150781Y3190109D1*
X4149342Y3182479D1*
X4147498Y3174935D1*
X4145256Y3167501D1*
X4142621Y3160196D1*
X4139601Y3153043D1*
X4136205Y3146059D1*
X4132442Y3139267D1*
X4128323Y3132685D1*
X4123859Y3126331D1*
X4119063Y3120223D1*
X4113949Y3114380D1*
X4108531Y3108817D1*
X4102825Y3103550D1*
X4096847Y3098594D1*
X4090613Y3093964D1*
X4084142Y3089672D1*
X4077452Y3085730D1*
X4070561Y3082150D1*
X4063489Y3078942D1*
X4056257Y3076115D1*
X4048885Y3073677D1*
X4041393Y3071634D1*
X4033803Y3069994D1*
X4026137Y3068759D1*
X4018415Y3067934D1*
X4010661Y3067522D1*
X4002896D1*
X3995142Y3067936D1*
X3987421Y3068762D1*
X3979754Y3069998D1*
X3972165Y3071640D1*
X3964673Y3073684D1*
X3957301Y3076123D1*
X3950069Y3078951D1*
X3942998Y3082161D1*
X3936108Y3085742D1*
X3929418Y3089684D1*
X3922948Y3093977D1*
X3916715Y3098609D1*
X3910737Y3103565D1*
X3905032Y3108833D1*
X3899615Y3114397D1*
X3894502Y3120241D1*
X3889708Y3126349D1*
X3885245Y3132704D1*
X3881127Y3139287D1*
X3877364Y3146080D1*
X3873969Y3153064D1*
X3870951Y3160218D1*
X3868317Y3167523D1*
X3866076Y3174958D1*
X3864233Y3182501D1*
X3862795Y3190132D1*
X3861765Y3197829D1*
X3861146Y3205569D1*
X3860940Y3213332D1*
X3861147Y3221094D1*
X3861768Y3228835D1*
X3862799Y3236531D1*
X3864238Y3244162D1*
X3866082Y3251705D1*
X3868324Y3259139D1*
X3870959Y3266444D1*
X3873979Y3273598D1*
X3877375Y3280581D1*
X3881138Y3287373D1*
X3885258Y3293956D1*
X3889722Y3300310D1*
X3894517Y3306417D1*
X3899631Y3312260D1*
X3905049Y3317823D1*
X3910755Y3323090D1*
X3916733Y3328046D1*
X3922967Y3332676D1*
X3929438Y3336968D1*
X3936129Y3340910D1*
X3943019Y3344490D1*
X3950091Y3347698D1*
X3957323Y3350525D1*
X3964696Y3352964D1*
X3972187Y3355006D1*
X3979777Y3356647D1*
X3987444Y3357881D1*
X3995165Y3358706D1*
X4002919Y3359119D1*
X4010684Y3359118D1*
X4018439Y3358704D1*
X4026160Y3357878D1*
X4033826Y3356642D1*
X4041416Y3355000D1*
X4048907Y3352957D1*
X4056279Y3350517D1*
X4063511Y3347689D1*
X4070582Y3344480D1*
X4077472Y3340899D1*
X4084162Y3336956D1*
X4090632Y3332663D1*
X4096865Y3328031D1*
X4102843Y3323075D1*
X4108548Y3317807D1*
X4113965Y3312243D1*
X4119078Y3306399D1*
X4123873Y3300291D1*
X4128335Y3293936D1*
X4132454Y3287353D1*
X4136216Y3280560D1*
X4139611Y3273577D1*
X4142630Y3266422D1*
X4145263Y3259117D1*
X4147505Y3251682D1*
X4149347Y3244139D1*
X4150785Y3236508D1*
X4151815Y3228811D1*
X4152434Y3221071D1*
X4152640Y3213320D1*
X4152433Y3205546D1*
X3884274Y3867170D2*
X4152640D1*
Y3575470D1*
X3860940D1*
Y3867170D1*
X3884274D1*
X8776675Y6460260D2*
X8773787Y6437070D1*
X8768995Y6414197D1*
X8762330Y6391798D1*
X8753839Y6370026D1*
X8743578Y6349030D1*
X8731619Y6328953D1*
X8718042Y6309932D1*
X8702942Y6292097D1*
X8686420Y6275570D1*
X8668589Y6260464D1*
X8649572Y6246881D1*
X8629498Y6234916D1*
X8608505Y6224649D1*
X8586736Y6216151D1*
X8564339Y6209479D1*
X8541468Y6204680D1*
X8518279Y6201786D1*
X8494929Y6200817D1*
X8471580Y6201779D1*
X8448390Y6204666D1*
X8425517Y6209458D1*
X8403118Y6216123D1*
X8381346Y6224615D1*
X8360350Y6234875D1*
X8340273Y6246835D1*
X8321252Y6260411D1*
X8303417Y6275512D1*
X8286890Y6292034D1*
X8271783Y6309865D1*
X8258201Y6328882D1*
X8246236Y6348955D1*
X8235969Y6369948D1*
X8227471Y6391718D1*
X8220799Y6414115D1*
X8216000Y6436986D1*
X8213106Y6460175D1*
X8212137Y6483524D1*
X8213099Y6506874D1*
X8215986Y6530064D1*
X8220778Y6552937D1*
X8227443Y6575335D1*
X8235935Y6597107D1*
X8246195Y6618103D1*
X8258155Y6638181D1*
X8271731Y6657202D1*
X8286832Y6675037D1*
X8303354Y6691564D1*
X8321185Y6706670D1*
X8340202Y6720252D1*
X8360275Y6732218D1*
X8381268Y6742485D1*
X8403038Y6750983D1*
X8425434Y6757654D1*
X8448306Y6762453D1*
X8471495Y6765348D1*
X8494844Y6766317D1*
X8518194Y6765355D1*
X8541384Y6762467D1*
X8564257Y6757675D1*
X8586655Y6751010D1*
X8608427Y6742519D1*
X8629423Y6732258D1*
X8649501Y6720299D1*
X8668522Y6706722D1*
X8686357Y6691622D1*
X8702884Y6675100D1*
X8717990Y6657269D1*
X8731572Y6638252D1*
X8743538Y6618178D1*
X8753805Y6597185D1*
X8762303Y6575416D1*
X8768974Y6553019D1*
X8773773Y6530148D1*
X8776668Y6506959D1*
X8777637Y6483567D1*
X8776675Y6460260D1*
Y1491380D2*
X8773787Y1468190D1*
X8768995Y1445317D1*
X8762330Y1422918D1*
X8753839Y1401146D1*
X8743578Y1380150D1*
X8731619Y1360073D1*
X8718042Y1341052D1*
X8702942Y1323217D1*
X8686420Y1306690D1*
X8668589Y1291584D1*
X8649572Y1278001D1*
X8629498Y1266036D1*
X8608505Y1255769D1*
X8586736Y1247271D1*
X8564339Y1240599D1*
X8541468Y1235800D1*
X8518279Y1232906D1*
X8494929Y1231937D1*
X8471580Y1232899D1*
X8448390Y1235786D1*
X8425517Y1240578D1*
X8403118Y1247243D1*
X8381346Y1255735D1*
X8360350Y1265995D1*
X8340273Y1277955D1*
X8321252Y1291531D1*
X8303417Y1306632D1*
X8286890Y1323154D1*
X8271783Y1340985D1*
X8258201Y1360002D1*
X8246236Y1380075D1*
X8235969Y1401068D1*
X8227471Y1422838D1*
X8220799Y1445235D1*
X8216000Y1468106D1*
X8213106Y1491295D1*
X8212137Y1514644D1*
X8213099Y1537994D1*
X8215986Y1561184D1*
X8220778Y1584057D1*
X8227443Y1606455D1*
X8235935Y1628227D1*
X8246195Y1649223D1*
X8258155Y1669301D1*
X8271731Y1688322D1*
X8286832Y1706157D1*
X8303354Y1722684D1*
X8321185Y1737790D1*
X8340202Y1751372D1*
X8360275Y1763338D1*
X8381268Y1773605D1*
X8403038Y1782103D1*
X8425434Y1788774D1*
X8448306Y1793573D1*
X8471495Y1796468D1*
X8494844Y1797437D1*
X8518194Y1796475D1*
X8541384Y1793587D1*
X8564257Y1788795D1*
X8586655Y1782130D1*
X8608427Y1773639D1*
X8629423Y1763378D1*
X8649501Y1751419D1*
X8668522Y1737842D1*
X8686357Y1722742D1*
X8702884Y1706220D1*
X8717990Y1688389D1*
X8731572Y1669372D1*
X8743538Y1649298D1*
X8753805Y1628305D1*
X8762303Y1606536D1*
X8768974Y1584139D1*
X8773773Y1561268D1*
X8776668Y1538079D1*
X8777637Y1514687D1*
X8776675Y1491380D1*
X1791678D2*
X1788791Y1468190D1*
X1783999Y1445317D1*
X1777334Y1422918D1*
X1768842Y1401146D1*
X1758582Y1380150D1*
X1746622Y1360073D1*
X1733046Y1341052D1*
X1717945Y1323217D1*
X1701423Y1306690D1*
X1683592Y1291584D1*
X1664575Y1278001D1*
X1644502Y1266036D1*
X1623509Y1255769D1*
X1601739Y1247271D1*
X1579342Y1240599D1*
X1556471Y1235800D1*
X1533282Y1232906D1*
X1509933Y1231937D1*
X1486583Y1232899D1*
X1463393Y1235786D1*
X1440520Y1240578D1*
X1418122Y1247243D1*
X1396350Y1255735D1*
X1375353Y1265995D1*
X1355276Y1277955D1*
X1336255Y1291531D1*
X1318420Y1306632D1*
X1301893Y1323154D1*
X1286787Y1340985D1*
X1273205Y1360002D1*
X1261239Y1380075D1*
X1250972Y1401068D1*
X1242474Y1422838D1*
X1235803Y1445235D1*
X1231004Y1468106D1*
X1228109Y1491295D1*
X1227140Y1514644D1*
X1228102Y1537994D1*
X1230989Y1561184D1*
X1235782Y1584057D1*
X1242446Y1606455D1*
X1250938Y1628227D1*
X1261199Y1649223D1*
X1273158Y1669301D1*
X1286735Y1688322D1*
X1301835Y1706157D1*
X1318357Y1722684D1*
X1336188Y1737790D1*
X1355205Y1751372D1*
X1375279Y1763338D1*
X1396272Y1773605D1*
X1418041Y1782103D1*
X1440438Y1788774D1*
X1463309Y1793573D1*
X1486498Y1796468D1*
X1509848Y1797437D1*
X1533197Y1796475D1*
X1556387Y1793587D1*
X1579260Y1788795D1*
X1601659Y1782130D1*
X1623431Y1773639D1*
X1644427Y1763378D1*
X1664504Y1751419D1*
X1683525Y1737842D1*
X1701360Y1722742D1*
X1717887Y1706220D1*
X1732993Y1688389D1*
X1746576Y1669372D1*
X1758541Y1649298D1*
X1768808Y1628305D1*
X1777306Y1606536D1*
X1783978Y1584139D1*
X1788777Y1561268D1*
X1791671Y1538079D1*
X1792640Y1514687D1*
X1791678Y1491380D1*
Y6460257D2*
X1788791Y6437066D1*
X1783999Y6414194D1*
X1777334Y6391795D1*
X1768842Y6370023D1*
X1758582Y6349027D1*
X1746622Y6328950D1*
X1733046Y6309928D1*
X1717945Y6292093D1*
X1701423Y6275566D1*
X1683592Y6260460D1*
X1664575Y6246878D1*
X1644502Y6234913D1*
X1623509Y6224646D1*
X1601739Y6216147D1*
X1579342Y6209476D1*
X1556471Y6204677D1*
X1533282Y6201783D1*
X1509933Y6200813D1*
X1486583Y6201776D1*
X1463393Y6204663D1*
X1440520Y6209455D1*
X1418122Y6216120D1*
X1396350Y6224611D1*
X1375353Y6234872D1*
X1355276Y6246831D1*
X1336255Y6260408D1*
X1318420Y6275509D1*
X1301893Y6292031D1*
X1286787Y6309861D1*
X1273205Y6328878D1*
X1261239Y6348952D1*
X1250972Y6369945D1*
X1242474Y6391714D1*
X1235803Y6414111D1*
X1231004Y6436982D1*
X1228109Y6460172D1*
X1227140Y6483521D1*
X1228102Y6506870D1*
X1230989Y6530061D1*
X1235782Y6552933D1*
X1242446Y6575332D1*
X1250938Y6597104D1*
X1261199Y6618100D1*
X1273158Y6638177D1*
X1286735Y6657199D1*
X1301835Y6675034D1*
X1318357Y6691561D1*
X1336188Y6706667D1*
X1355205Y6720249D1*
X1375279Y6732214D1*
X1396272Y6742481D1*
X1418041Y6750979D1*
X1440438Y6757651D1*
X1463309Y6762450D1*
X1486498Y6765344D1*
X1509848Y6766313D1*
X1533197Y6765351D1*
X1556387Y6762464D1*
X1579260Y6757672D1*
X1601659Y6751007D1*
X1623431Y6742515D1*
X1644427Y6732255D1*
X1664504Y6720296D1*
X1683525Y6706719D1*
X1701360Y6691618D1*
X1717887Y6675096D1*
X1732993Y6657266D1*
X1746576Y6638249D1*
X1758541Y6618175D1*
X1768808Y6597182D1*
X1777306Y6575413D1*
X1783978Y6553016D1*
X1788777Y6530145D1*
X1791671Y6506955D1*
X1792640Y6483563D1*
X1791678Y6460257D1*
X1306370Y5309413D2*
X1609737D1*
Y4982713D1*
X1283037D1*
Y5309413D1*
X1306370D1*
X1608073Y4622809D2*
X1603118Y4600036D1*
X1594972Y4578199D1*
X1583802Y4557744D1*
X1569834Y4539087D1*
X1553353Y4522607D1*
X1534695Y4508641D1*
X1514238Y4497472D1*
X1492401Y4489328D1*
X1469627Y4484375D1*
X1446380Y4482713D1*
X1423133Y4484377D1*
X1400359Y4489332D1*
X1378522Y4497478D1*
X1358067Y4508649D1*
X1339410Y4522616D1*
X1322931Y4539097D1*
X1308964Y4557756D1*
X1297796Y4578212D1*
X1289652Y4600049D1*
X1284698Y4622823D1*
X1283037Y4646070D1*
X1284700Y4669318D1*
X1289656Y4692091D1*
X1297801Y4713928D1*
X1308972Y4734383D1*
X1322940Y4753040D1*
X1339421Y4769520D1*
X1358079Y4783486D1*
X1378535Y4794655D1*
X1400373Y4802799D1*
X1423147Y4807752D1*
X1446394Y4809413D1*
X1469641Y4807750D1*
X1492415Y4802795D1*
X1514251Y4794649D1*
X1534706Y4783478D1*
X1553364Y4769511D1*
X1569843Y4753030D1*
X1583809Y4734371D1*
X1594978Y4713915D1*
X1603122Y4692078D1*
X1608075Y4669304D1*
X1609737Y4646063D1*
X1608073Y4622809D1*
X1306364Y3515540D2*
X1609731D1*
Y3188840D1*
X1283031D1*
Y3515540D1*
X1306364D1*
X1608080Y2828936D2*
X1603124Y2806163D1*
X1594979Y2784326D1*
X1583808Y2763871D1*
X1569840Y2745214D1*
X1553359Y2728734D1*
X1534701Y2714768D1*
X1514245Y2703599D1*
X1492408Y2695455D1*
X1469633Y2690502D1*
X1446386Y2688841D1*
X1423139Y2690504D1*
X1400366Y2695459D1*
X1378529Y2703605D1*
X1358074Y2714776D1*
X1339416Y2728743D1*
X1322937Y2745224D1*
X1308971Y2763883D1*
X1297802Y2784339D1*
X1289658Y2806176D1*
X1284705Y2828950D1*
X1283043Y2852198D1*
X1284707Y2875445D1*
X1289662Y2898218D1*
X1297808Y2920055D1*
X1308978Y2940510D1*
X1322946Y2959167D1*
X1339427Y2975647D1*
X1358085Y2989613D1*
X1378542Y3000782D1*
X1400379Y3008926D1*
X1423153Y3013879D1*
X1446400Y3015541D1*
X1469647Y3013877D1*
X1492421Y3008922D1*
X1514258Y3000776D1*
X1534713Y2989606D1*
X1553370Y2975638D1*
X1569850Y2959157D1*
X1583816Y2940498D1*
X1594985Y2920042D1*
X1603128Y2898205D1*
X1608082Y2875431D1*
X1609743Y2852191D1*
X1608080Y2828936D1*
X2889874Y6726290D2*
X3193240D1*
Y6399590D1*
X2866540D1*
Y6726290D1*
X2889874D1*
X2693055Y6555165D2*
X2692500Y6547410D1*
X2691577Y6539691D1*
X2690288Y6532024D1*
X2688635Y6524427D1*
X2686623Y6516917D1*
X2684255Y6509511D1*
X2681538Y6502227D1*
X2678478Y6495080D1*
X2675080Y6488087D1*
X2671354Y6481263D1*
X2667308Y6474625D1*
X2662950Y6468186D1*
X2658290Y6461962D1*
X2653340Y6455967D1*
X2648110Y6450214D1*
X2642613Y6444717D1*
X2636860Y6439487D1*
X2630865Y6434537D1*
X2624641Y6429878D1*
X2618202Y6425520D1*
X2611563Y6421474D1*
X2604739Y6417748D1*
X2597746Y6414351D1*
X2590599Y6411290D1*
X2583314Y6408574D1*
X2575909Y6406206D1*
X2568399Y6404194D1*
X2560802Y6402542D1*
X2553135Y6401252D1*
X2545415Y6400330D1*
X2537660Y6399775D1*
X2529888Y6399590D1*
X2522115Y6399775D1*
X2514360Y6400330D1*
X2506641Y6401253D1*
X2498974Y6402543D1*
X2491377Y6404195D1*
X2483867Y6406208D1*
X2476461Y6408575D1*
X2469177Y6411292D1*
X2462030Y6414353D1*
X2455037Y6417750D1*
X2448213Y6421476D1*
X2441575Y6425523D1*
X2435136Y6429881D1*
X2428912Y6434540D1*
X2422917Y6439490D1*
X2417164Y6444720D1*
X2411667Y6450217D1*
X2406437Y6455970D1*
X2401487Y6461966D1*
X2396828Y6468190D1*
X2392470Y6474628D1*
X2388424Y6481267D1*
X2384698Y6488091D1*
X2381301Y6495084D1*
X2378240Y6502231D1*
X2375523Y6509516D1*
X2373156Y6516921D1*
X2371144Y6524431D1*
X2369492Y6532028D1*
X2368202Y6539695D1*
X2367280Y6547415D1*
X2366725Y6555170D1*
X2366540Y6562942D1*
X2366725Y6570715D1*
X2367280Y6578470D1*
X2368203Y6586190D1*
X2369493Y6593857D1*
X2371145Y6601454D1*
X2373158Y6608963D1*
X2375525Y6616369D1*
X2378242Y6623653D1*
X2381303Y6630800D1*
X2384700Y6637794D1*
X2388426Y6644617D1*
X2392473Y6651256D1*
X2396831Y6657694D1*
X2401490Y6663918D1*
X2406440Y6669913D1*
X2411670Y6675666D1*
X2417167Y6681164D1*
X2422920Y6686393D1*
X2428916Y6691343D1*
X2435140Y6696002D1*
X2441578Y6700360D1*
X2448217Y6704407D1*
X2455041Y6708132D1*
X2462034Y6711530D1*
X2469181Y6714590D1*
X2476466Y6717307D1*
X2483871Y6719674D1*
X2491381Y6721686D1*
X2498978Y6723339D1*
X2506645Y6724628D1*
X2514365Y6725551D1*
X2522120Y6726105D1*
X2529892Y6726290D1*
X2537665Y6726105D1*
X2545420Y6725550D1*
X2553140Y6724627D1*
X2560807Y6723338D1*
X2568404Y6721685D1*
X2575913Y6719673D1*
X2583319Y6717305D1*
X2590603Y6714588D1*
X2597750Y6711528D1*
X2604744Y6708130D1*
X2611567Y6704404D1*
X2618206Y6700358D1*
X2624644Y6696000D1*
X2630868Y6691340D1*
X2636863Y6686390D1*
X2642616Y6681160D1*
X2648114Y6675663D1*
X2653343Y6669910D1*
X2658293Y6663915D1*
X2662952Y6657691D1*
X2667310Y6651252D1*
X2671357Y6644613D1*
X2675082Y6637789D1*
X2678480Y6630796D1*
X2681540Y6623649D1*
X2684257Y6616364D1*
X2686624Y6608959D1*
X2688636Y6601449D1*
X2690289Y6593852D1*
X2691578Y6586185D1*
X2692501Y6578465D1*
X2693055Y6570710D1*
X2693240Y6562940D1*
X2693055Y6555165D1*
X5937870Y6742163D2*
X6241237D1*
Y6415463D1*
X5914537D1*
Y6742163D1*
X5937870D1*
X5739573Y6555559D2*
X5734618Y6532786D1*
X5726472Y6510949D1*
X5715302Y6490494D1*
X5701334Y6471837D1*
X5684853Y6455357D1*
X5666195Y6441391D1*
X5645738Y6430222D1*
X5623901Y6422078D1*
X5601127Y6417125D1*
X5577880Y6415463D1*
X5554633Y6417127D1*
X5531859Y6422082D1*
X5510022Y6430228D1*
X5489567Y6441399D1*
X5470910Y6455366D1*
X5454431Y6471847D1*
X5440464Y6490506D1*
X5429296Y6510962D1*
X5421152Y6532799D1*
X5416198Y6555573D1*
X5414537Y6578820D1*
X5416200Y6602068D1*
X5421156Y6624841D1*
X5429301Y6646678D1*
X5440472Y6667133D1*
X5454440Y6685790D1*
X5470921Y6702270D1*
X5489579Y6716236D1*
X5510035Y6727405D1*
X5531873Y6735549D1*
X5554647Y6740502D1*
X5577894Y6742163D1*
X5601141Y6740500D1*
X5623915Y6735545D1*
X5645751Y6727399D1*
X5666206Y6716228D1*
X5684864Y6702261D1*
X5701343Y6685780D1*
X5715309Y6667121D1*
X5726478Y6646665D1*
X5734622Y6624828D1*
X5739575Y6602054D1*
X5741237Y6578813D1*
X5739573Y6555559D1*
X8418370Y4809417D2*
X8721737D1*
Y4482717D1*
X8395037D1*
Y4809417D1*
X8418370D1*
X8721552Y5138292D2*
X8720997Y5130537D1*
X8720074Y5122817D1*
X8718784Y5115150D1*
X8717132Y5107553D1*
X8715119Y5100044D1*
X8712752Y5092638D1*
X8710035Y5085354D1*
X8706974Y5078207D1*
X8703577Y5071213D1*
X8699851Y5064390D1*
X8695804Y5057751D1*
X8691446Y5051313D1*
X8686787Y5045089D1*
X8681837Y5039094D1*
X8676607Y5033341D1*
X8671110Y5027843D1*
X8665357Y5022614D1*
X8659361Y5017664D1*
X8653137Y5013004D1*
X8646699Y5008647D1*
X8640060Y5004600D1*
X8633236Y5000874D1*
X8626243Y4997477D1*
X8619096Y4994417D1*
X8611811Y4991700D1*
X8604406Y4989333D1*
X8596896Y4987321D1*
X8589299Y4985668D1*
X8581632Y4984379D1*
X8573912Y4983456D1*
X8566157Y4982902D1*
X8558384Y4982717D1*
X8550612Y4982902D1*
X8542857Y4983457D1*
X8535137Y4984380D1*
X8527470Y4985669D1*
X8519873Y4987322D1*
X8512364Y4989334D1*
X8504958Y4991702D1*
X8497674Y4994419D1*
X8490527Y4997479D1*
X8483533Y5000877D1*
X8476710Y5004603D1*
X8470071Y5008649D1*
X8463633Y5013007D1*
X8457409Y5017666D1*
X8451414Y5022617D1*
X8445661Y5027846D1*
X8440163Y5033344D1*
X8434934Y5039097D1*
X8429984Y5045092D1*
X8425324Y5051316D1*
X8420967Y5057755D1*
X8416920Y5064394D1*
X8413194Y5071218D1*
X8409797Y5078211D1*
X8406737Y5085358D1*
X8404020Y5092642D1*
X8401653Y5100048D1*
X8399641Y5107558D1*
X8397988Y5115155D1*
X8396699Y5122822D1*
X8395776Y5130542D1*
X8395222Y5138297D1*
X8395037Y5146069D1*
X8395222Y5153842D1*
X8395777Y5161597D1*
X8396700Y5169316D1*
X8397989Y5176983D1*
X8399642Y5184580D1*
X8401654Y5192090D1*
X8404022Y5199496D1*
X8406739Y5206780D1*
X8409799Y5213927D1*
X8413197Y5220920D1*
X8416923Y5227744D1*
X8420969Y5234382D1*
X8425327Y5240821D1*
X8429986Y5247045D1*
X8434937Y5253040D1*
X8440166Y5258793D1*
X8445664Y5264290D1*
X8451417Y5269520D1*
X8457412Y5274470D1*
X8463636Y5279129D1*
X8470075Y5283487D1*
X8476714Y5287533D1*
X8483538Y5291259D1*
X8490531Y5294656D1*
X8497678Y5297717D1*
X8504962Y5300433D1*
X8512368Y5302801D1*
X8519878Y5304813D1*
X8527475Y5306465D1*
X8535142Y5307754D1*
X8542862Y5308677D1*
X8550617Y5309232D1*
X8558389Y5309417D1*
X8566162Y5309232D1*
X8573917Y5308677D1*
X8581636Y5307754D1*
X8589303Y5306464D1*
X8596900Y5304812D1*
X8604410Y5302799D1*
X8611816Y5300432D1*
X8619100Y5297715D1*
X8626247Y5294654D1*
X8633240Y5291257D1*
X8640064Y5287531D1*
X8646702Y5283484D1*
X8653141Y5279126D1*
X8659365Y5274467D1*
X8665360Y5269517D1*
X8671113Y5264287D1*
X8676610Y5258790D1*
X8681840Y5253037D1*
X8686790Y5247041D1*
X8691449Y5240817D1*
X8695807Y5234379D1*
X8699853Y5227740D1*
X8703579Y5220916D1*
X8706976Y5213923D1*
X8710037Y5206776D1*
X8712753Y5199491D1*
X8715121Y5192086D1*
X8717133Y5184576D1*
X8718785Y5176979D1*
X8720074Y5169312D1*
X8720997Y5161592D1*
X8721552Y5153837D1*
X8721737Y5146067D1*
X8721552Y5138292D1*
X8434244Y3015540D2*
X8737610D1*
Y2688840D1*
X8410910D1*
Y3015540D1*
X8434244D1*
X8737425Y3344415D2*
X8736870Y3336660D1*
X8735947Y3328941D1*
X8734658Y3321274D1*
X8733005Y3313677D1*
X8730993Y3306167D1*
X8728625Y3298761D1*
X8725908Y3291477D1*
X8722848Y3284330D1*
X8719450Y3277337D1*
X8715724Y3270513D1*
X8711678Y3263875D1*
X8707320Y3257436D1*
X8702660Y3251212D1*
X8697710Y3245217D1*
X8692480Y3239464D1*
X8686983Y3233967D1*
X8681230Y3228737D1*
X8675235Y3223787D1*
X8669011Y3219128D1*
X8662572Y3214770D1*
X8655933Y3210724D1*
X8649109Y3206998D1*
X8642116Y3203601D1*
X8634969Y3200540D1*
X8627684Y3197824D1*
X8620279Y3195456D1*
X8612769Y3193444D1*
X8605172Y3191792D1*
X8597505Y3190502D1*
X8589785Y3189580D1*
X8582030Y3189025D1*
X8574258Y3188840D1*
X8566485Y3189025D1*
X8558730Y3189580D1*
X8551011Y3190503D1*
X8543344Y3191793D1*
X8535747Y3193445D1*
X8528237Y3195458D1*
X8520831Y3197825D1*
X8513547Y3200542D1*
X8506400Y3203603D1*
X8499407Y3207000D1*
X8492583Y3210726D1*
X8485945Y3214773D1*
X8479506Y3219131D1*
X8473282Y3223790D1*
X8467287Y3228740D1*
X8461534Y3233970D1*
X8456037Y3239467D1*
X8450807Y3245220D1*
X8445857Y3251216D1*
X8441198Y3257440D1*
X8436840Y3263878D1*
X8432794Y3270517D1*
X8429068Y3277341D1*
X8425671Y3284334D1*
X8422610Y3291481D1*
X8419893Y3298766D1*
X8417526Y3306171D1*
X8415514Y3313681D1*
X8413862Y3321278D1*
X8412572Y3328945D1*
X8411650Y3336665D1*
X8411095Y3344420D1*
X8410910Y3352192D1*
X8411095Y3359965D1*
X8411650Y3367720D1*
X8412573Y3375440D1*
X8413863Y3383107D1*
X8415515Y3390704D1*
X8417528Y3398213D1*
X8419895Y3405619D1*
X8422612Y3412903D1*
X8425673Y3420050D1*
X8429070Y3427044D1*
X8432796Y3433867D1*
X8436843Y3440506D1*
X8441201Y3446944D1*
X8445860Y3453168D1*
X8450810Y3459163D1*
X8456040Y3464916D1*
X8461537Y3470414D1*
X8467290Y3475643D1*
X8473286Y3480593D1*
X8479510Y3485252D1*
X8485948Y3489610D1*
X8492587Y3493657D1*
X8499411Y3497382D1*
X8506404Y3500780D1*
X8513551Y3503840D1*
X8520836Y3506557D1*
X8528241Y3508924D1*
X8535751Y3510936D1*
X8543348Y3512589D1*
X8551015Y3513878D1*
X8558735Y3514801D1*
X8566490Y3515355D1*
X8574262Y3515540D1*
X8582035Y3515355D1*
X8589790Y3514800D1*
X8597510Y3513877D1*
X8605177Y3512588D1*
X8612774Y3510935D1*
X8620283Y3508923D1*
X8627689Y3506555D1*
X8634973Y3503838D1*
X8642120Y3500778D1*
X8649114Y3497380D1*
X8655937Y3493654D1*
X8662576Y3489608D1*
X8669014Y3485250D1*
X8675238Y3480590D1*
X8681233Y3475640D1*
X8686986Y3470410D1*
X8692484Y3464913D1*
X8697713Y3459160D1*
X8702663Y3453165D1*
X8707322Y3446941D1*
X8711680Y3440502D1*
X8715727Y3433863D1*
X8719452Y3427039D1*
X8722850Y3420046D1*
X8725910Y3412899D1*
X8728627Y3405614D1*
X8730994Y3398209D1*
X8733006Y3390699D1*
X8734659Y3383102D1*
X8735948Y3375435D1*
X8736871Y3367715D1*
X8737425Y3359960D1*
X8737610Y3352190D1*
X8737425Y3344415D1*
X4286871Y6726290D2*
X4590237D1*
Y6399590D1*
X4263537D1*
Y6726290D1*
X4286871D1*
X4090052Y6555165D2*
X4089497Y6547410D1*
X4088574Y6539691D1*
X4087284Y6532024D1*
X4085632Y6524427D1*
X4083619Y6516917D1*
X4081252Y6509511D1*
X4078535Y6502227D1*
X4075474Y6495080D1*
X4072077Y6488087D1*
X4068351Y6481263D1*
X4064304Y6474625D1*
X4059946Y6468186D1*
X4055287Y6461962D1*
X4050337Y6455967D1*
X4045107Y6450214D1*
X4039610Y6444717D1*
X4033857Y6439487D1*
X4027861Y6434537D1*
X4021637Y6429878D1*
X4015199Y6425520D1*
X4008560Y6421474D1*
X4001736Y6417748D1*
X3994743Y6414351D1*
X3987596Y6411290D1*
X3980311Y6408574D1*
X3972906Y6406206D1*
X3965396Y6404194D1*
X3957799Y6402542D1*
X3950132Y6401252D1*
X3942412Y6400330D1*
X3934657Y6399775D1*
X3926884Y6399590D1*
X3919112Y6399775D1*
X3911357Y6400330D1*
X3903637Y6401253D1*
X3895970Y6402543D1*
X3888373Y6404195D1*
X3880864Y6406208D1*
X3873458Y6408575D1*
X3866174Y6411292D1*
X3859027Y6414353D1*
X3852033Y6417750D1*
X3845210Y6421476D1*
X3838571Y6425523D1*
X3832133Y6429881D1*
X3825909Y6434540D1*
X3819914Y6439490D1*
X3814161Y6444720D1*
X3808663Y6450217D1*
X3803434Y6455970D1*
X3798484Y6461966D1*
X3793824Y6468190D1*
X3789467Y6474628D1*
X3785420Y6481267D1*
X3781694Y6488091D1*
X3778297Y6495084D1*
X3775237Y6502231D1*
X3772520Y6509516D1*
X3770153Y6516921D1*
X3768141Y6524431D1*
X3766488Y6532028D1*
X3765199Y6539695D1*
X3764276Y6547415D1*
X3763722Y6555170D1*
X3763537Y6562942D1*
X3763722Y6570715D1*
X3764277Y6578470D1*
X3765200Y6586190D1*
X3766489Y6593857D1*
X3768142Y6601454D1*
X3770154Y6608963D1*
X3772522Y6616369D1*
X3775239Y6623653D1*
X3778299Y6630800D1*
X3781697Y6637794D1*
X3785423Y6644617D1*
X3789469Y6651256D1*
X3793827Y6657694D1*
X3798486Y6663918D1*
X3803437Y6669913D1*
X3808666Y6675666D1*
X3814164Y6681164D1*
X3819917Y6686393D1*
X3825912Y6691343D1*
X3832136Y6696002D1*
X3838575Y6700360D1*
X3845214Y6704407D1*
X3852038Y6708132D1*
X3859031Y6711530D1*
X3866178Y6714590D1*
X3873462Y6717307D1*
X3880868Y6719674D1*
X3888378Y6721686D1*
X3895975Y6723339D1*
X3903642Y6724628D1*
X3911362Y6725551D1*
X3919117Y6726105D1*
X3926889Y6726290D1*
X3934662Y6726105D1*
X3942417Y6725550D1*
X3950136Y6724627D1*
X3957803Y6723338D1*
X3965400Y6721685D1*
X3972910Y6719673D1*
X3980316Y6717305D1*
X3987600Y6714588D1*
X3994747Y6711528D1*
X4001740Y6708130D1*
X4008564Y6704404D1*
X4015202Y6700358D1*
X4021641Y6696000D1*
X4027865Y6691340D1*
X4033860Y6686390D1*
X4039613Y6681160D1*
X4045110Y6675663D1*
X4050340Y6669910D1*
X4055290Y6663915D1*
X4059949Y6657691D1*
X4064307Y6651252D1*
X4068353Y6644613D1*
X4072079Y6637789D1*
X4075476Y6630796D1*
X4078537Y6623649D1*
X4081253Y6616364D1*
X4083621Y6608959D1*
X4085633Y6601449D1*
X4087285Y6593852D1*
X4088574Y6586185D1*
X4089497Y6578465D1*
X4090052Y6570710D1*
X4090237Y6562940D1*
X4090052Y6555165D1*
X7319315Y6726290D2*
X7638237D1*
Y6399590D1*
X7311537D1*
Y6726290D1*
X7319315D1*
X7138052Y6555165D2*
X7137497Y6547410D1*
X7136574Y6539691D1*
X7135284Y6532024D1*
X7133632Y6524427D1*
X7131619Y6516917D1*
X7129252Y6509511D1*
X7126535Y6502227D1*
X7123474Y6495080D1*
X7120077Y6488087D1*
X7116351Y6481263D1*
X7112304Y6474625D1*
X7107946Y6468186D1*
X7103287Y6461962D1*
X7098337Y6455967D1*
X7093107Y6450214D1*
X7087610Y6444717D1*
X7081857Y6439487D1*
X7075861Y6434537D1*
X7069637Y6429878D1*
X7063199Y6425520D1*
X7056560Y6421474D1*
X7049736Y6417748D1*
X7042743Y6414351D1*
X7035596Y6411290D1*
X7028311Y6408574D1*
X7020906Y6406206D1*
X7013396Y6404194D1*
X7005799Y6402542D1*
X6998132Y6401252D1*
X6990412Y6400330D1*
X6982657Y6399775D1*
X6974884Y6399590D1*
X6967112Y6399775D1*
X6959357Y6400330D1*
X6951637Y6401253D1*
X6943970Y6402543D1*
X6936373Y6404195D1*
X6928864Y6406208D1*
X6921458Y6408575D1*
X6914174Y6411292D1*
X6907027Y6414353D1*
X6900033Y6417750D1*
X6893210Y6421476D1*
X6886571Y6425523D1*
X6880133Y6429881D1*
X6873909Y6434540D1*
X6867914Y6439490D1*
X6862161Y6444720D1*
X6856663Y6450217D1*
X6851434Y6455970D1*
X6846484Y6461966D1*
X6841824Y6468190D1*
X6837467Y6474628D1*
X6833420Y6481267D1*
X6829694Y6488091D1*
X6826297Y6495084D1*
X6823237Y6502231D1*
X6820520Y6509516D1*
X6818153Y6516921D1*
X6816141Y6524431D1*
X6814488Y6532028D1*
X6813199Y6539695D1*
X6812276Y6547415D1*
X6811722Y6555170D1*
X6811537Y6562942D1*
X6811722Y6570715D1*
X6812277Y6578470D1*
X6813200Y6586190D1*
X6814489Y6593857D1*
X6816142Y6601454D1*
X6818154Y6608963D1*
X6820522Y6616369D1*
X6823239Y6623653D1*
X6826299Y6630800D1*
X6829697Y6637794D1*
X6833423Y6644617D1*
X6837469Y6651256D1*
X6841827Y6657694D1*
X6846486Y6663918D1*
X6851437Y6669913D1*
X6856666Y6675666D1*
X6862164Y6681164D1*
X6867917Y6686393D1*
X6873912Y6691343D1*
X6880136Y6696002D1*
X6886575Y6700360D1*
X6893214Y6704407D1*
X6900038Y6708132D1*
X6907031Y6711530D1*
X6914178Y6714590D1*
X6921462Y6717307D1*
X6928868Y6719674D1*
X6936378Y6721686D1*
X6943975Y6723339D1*
X6951642Y6724628D1*
X6959362Y6725551D1*
X6967117Y6726105D1*
X6974889Y6726290D1*
X6982662Y6726105D1*
X6990417Y6725550D1*
X6998136Y6724627D1*
X7005803Y6723338D1*
X7013400Y6721685D1*
X7020910Y6719673D1*
X7028316Y6717305D1*
X7035600Y6714588D1*
X7042747Y6711528D1*
X7049740Y6708130D1*
X7056564Y6704404D1*
X7063202Y6700358D1*
X7069641Y6696000D1*
X7075865Y6691340D1*
X7081860Y6686390D1*
X7087613Y6681160D1*
X7093110Y6675663D1*
X7098340Y6669910D1*
X7103290Y6663915D1*
X7107949Y6657691D1*
X7112307Y6651252D1*
X7116353Y6644613D1*
X7120079Y6637789D1*
X7123476Y6630796D1*
X7126537Y6623649D1*
X7129253Y6616364D1*
X7131621Y6608959D1*
X7133633Y6601449D1*
X7135285Y6593852D1*
X7136574Y6586185D1*
X7137497Y6578465D1*
X7138052Y6570710D1*
X7138237Y6562940D1*
X7138052Y6555165D1*
X5778802Y4761012D2*
X5779078D1*
Y4523112D1*
X5469178D1*
Y4761012D1*
X5469444D1*
X5469173Y4768877D1*
X5471419Y4792064D1*
X5478140Y4814370D1*
X5487681Y4832306D1*
X5478277Y4850412D1*
X5471486Y4872696D1*
X5469169Y4895877D1*
X5471415Y4919064D1*
X5478136Y4941370D1*
X5489076Y4961937D1*
X5503815Y4979977D1*
X5521788Y4994799D1*
X5542305Y5005834D1*
X5564579Y5012658D1*
X5588115Y5015011D1*
X5660115Y5015013D1*
X5683299Y5012733D1*
X5705594Y5005978D1*
X5726145Y4995006D1*
X5744163Y4980240D1*
X5758958Y4962245D1*
X5769962Y4941712D1*
X5776752Y4919428D1*
X5779069Y4896247D1*
X5776824Y4873060D1*
X5770102Y4850754D1*
X5760562Y4832818D1*
X5769966Y4814712D1*
X5776757Y4792427D1*
X5779074Y4769247D1*
X5778278Y4761027D1*
X5794964Y3459267D2*
X5795240D1*
Y3221367D1*
X5485340D1*
Y3459267D1*
X5485606D1*
X5485337Y3467135D1*
X5487582Y3490322D1*
X5494304Y3512627D1*
X5503845Y3530563D1*
X5494441Y3548670D1*
X5487651Y3570954D1*
X5485334Y3594135D1*
X5487580Y3617322D1*
X5494302Y3639627D1*
X5505242Y3660195D1*
X5519982Y3678235D1*
X5537954Y3693057D1*
X5558471Y3704091D1*
X5580745Y3710915D1*
X5604282Y3713267D1*
X5676282Y3713269D1*
X5699466Y3710988D1*
X5721761Y3704232D1*
X5742312Y3693261D1*
X5760330Y3678494D1*
X5775124Y3660499D1*
X5786128Y3639966D1*
X5792918Y3617681D1*
X5795235Y3594501D1*
X5792989Y3571313D1*
X5786267Y3549008D1*
X5776726Y3531072D1*
X5786130Y3512966D1*
X5792920Y3490681D1*
X5795237Y3467501D1*
X5794441Y3459281D1*
X3381268Y5126860D2*
X3375079Y5104511D1*
X3364999Y5083627D1*
X3351352Y5064878D1*
X3334577Y5048867D1*
X3315212Y5036109D1*
X3293881Y5027013D1*
X3271268Y5021872D1*
X3248101Y5020852D1*
X3225124Y5023985D1*
X3203075Y5031170D1*
X3182664Y5042177D1*
X3164546Y5056651D1*
X3149304Y5074128D1*
X3137427Y5094045D1*
X3129298Y5115763D1*
X3125177Y5138584D1*
X3125197Y5161774D1*
X3129358Y5184587D1*
X3137525Y5206291D1*
X3149436Y5226188D1*
X3164709Y5243638D1*
X3182852Y5258081D1*
X3203282Y5269052D1*
X3225343Y5276199D1*
X3248326Y5279292D1*
X3271491Y5278231D1*
X3294095Y5273051D1*
X3315410Y5263919D1*
X3334753Y5251127D1*
X3351500Y5235086D1*
X3365114Y5216314D1*
X3375158Y5195412D1*
X3381308Y5173052D1*
X3383366Y5150067D1*
X3381268Y5126860D1*
X3383147Y4380294D2*
X3382442Y4372512D1*
X3381268Y4364787D1*
X3379631Y4357147D1*
X3377535Y4349620D1*
X3374988Y4342233D1*
X3372000Y4335014D1*
X3368581Y4327988D1*
X3364745Y4321181D1*
X3360504Y4314618D1*
X3355875Y4308323D1*
X3350875Y4302320D1*
X3345521Y4296629D1*
X3339833Y4291271D1*
X3333832Y4286267D1*
X3327540Y4281635D1*
X3320980Y4277391D1*
X3314175Y4273550D1*
X3307151Y4270128D1*
X3299933Y4267136D1*
X3292548Y4264585D1*
X3285022Y4262484D1*
X3277383Y4260842D1*
X3269659Y4259664D1*
X3261877Y4258955D1*
X3254067Y4258717D1*
X3246257Y4258951D1*
X3238476Y4259655D1*
X3230751Y4260829D1*
X3223111Y4262467D1*
X3215584Y4264563D1*
X3208197Y4267109D1*
X3200977Y4270097D1*
X3193951Y4273516D1*
X3187144Y4277352D1*
X3180582Y4281593D1*
X3174287Y4286222D1*
X3168283Y4291222D1*
X3162592Y4296576D1*
X3157235Y4302264D1*
X3152231Y4308265D1*
X3147598Y4314557D1*
X3143354Y4321118D1*
X3139514Y4327922D1*
X3136091Y4334946D1*
X3133099Y4342164D1*
X3130548Y4349550D1*
X3128448Y4357075D1*
X3126806Y4364714D1*
X3125628Y4372439D1*
X3124919Y4380220D1*
X3124680Y4388030D1*
X3124914Y4395840D1*
X3125619Y4403622D1*
X3126793Y4411346D1*
X3128430Y4418986D1*
X3130526Y4426514D1*
X3133073Y4433900D1*
X3136061Y4441120D1*
X3139480Y4448146D1*
X3143316Y4454953D1*
X3147557Y4461516D1*
X3152186Y4467810D1*
X3157186Y4473814D1*
X3162540Y4479505D1*
X3168228Y4484862D1*
X3174229Y4489866D1*
X3180521Y4494499D1*
X3187081Y4498743D1*
X3193886Y4502583D1*
X3200910Y4506006D1*
X3208128Y4508998D1*
X3215513Y4511549D1*
X3223039Y4513649D1*
X3230678Y4515291D1*
X3238402Y4516469D1*
X3246184Y4517179D1*
X3253994Y4517417D1*
X3261804Y4517183D1*
X3269585Y4516478D1*
X3277310Y4515305D1*
X3284950Y4513667D1*
X3292477Y4511571D1*
X3299864Y4509024D1*
X3307084Y4506036D1*
X3314110Y4502618D1*
X3320917Y4498781D1*
X3327479Y4494541D1*
X3333774Y4489912D1*
X3339778Y4484911D1*
X3345469Y4479557D1*
X3350826Y4473869D1*
X3355830Y4467868D1*
X3360462Y4461576D1*
X3364707Y4455016D1*
X3368547Y4448211D1*
X3371970Y4441187D1*
X3374962Y4433969D1*
X3377513Y4426584D1*
X3379613Y4419058D1*
X3381255Y4411419D1*
X3382433Y4403695D1*
X3383142Y4395914D1*
X3383380Y4388067D1*
X3383147Y4380294D1*
X4872506Y3078547D2*
X4871801Y3070765D1*
X4870628Y3063040D1*
X4868990Y3055401D1*
X4866894Y3047873D1*
X4864348Y3040487D1*
X4861360Y3033267D1*
X4857941Y3026241D1*
X4854105Y3019434D1*
X4849864Y3012871D1*
X4845235Y3006577D1*
X4840234Y3000573D1*
X4834881Y2994882D1*
X4829193Y2989525D1*
X4823192Y2984521D1*
X4816900Y2979888D1*
X4810339Y2975644D1*
X4803535Y2971804D1*
X4796511Y2968381D1*
X4789293Y2965389D1*
X4781907Y2962838D1*
X4774381Y2960738D1*
X4766742Y2959096D1*
X4759018Y2957918D1*
X4751237Y2957208D1*
X4743427Y2956970D1*
X4735617Y2957204D1*
X4727835Y2957909D1*
X4720110Y2959082D1*
X4712471Y2960720D1*
X4704943Y2962816D1*
X4697557Y2965363D1*
X4690337Y2968351D1*
X4683311Y2971769D1*
X4676504Y2975606D1*
X4669941Y2979846D1*
X4663647Y2984475D1*
X4657643Y2989476D1*
X4651952Y2994830D1*
X4646595Y3000518D1*
X4641591Y3006518D1*
X4636958Y3012811D1*
X4632714Y3019371D1*
X4628874Y3026176D1*
X4625451Y3033200D1*
X4622459Y3040417D1*
X4619908Y3047803D1*
X4617808Y3055329D1*
X4616166Y3062968D1*
X4614988Y3070692D1*
X4614278Y3078473D1*
X4614040Y3086283D1*
X4614274Y3094093D1*
X4614979Y3101875D1*
X4616152Y3109600D1*
X4617790Y3117240D1*
X4619886Y3124767D1*
X4622433Y3132154D1*
X4625421Y3139373D1*
X4628839Y3146399D1*
X4632676Y3153206D1*
X4636916Y3159769D1*
X4641545Y3166064D1*
X4646546Y3172067D1*
X4651900Y3177758D1*
X4657588Y3183116D1*
X4663588Y3188120D1*
X4669881Y3192752D1*
X4676441Y3196996D1*
X4683246Y3200837D1*
X4690270Y3204259D1*
X4697487Y3207251D1*
X4704873Y3209802D1*
X4712399Y3211903D1*
X4720038Y3213545D1*
X4727762Y3214723D1*
X4735543Y3215432D1*
X4743353Y3215670D1*
X4751163Y3215436D1*
X4758945Y3214731D1*
X4766670Y3213558D1*
X4774310Y3211920D1*
X4781837Y3209824D1*
X4789224Y3207278D1*
X4796443Y3204290D1*
X4803469Y3200871D1*
X4810276Y3197035D1*
X4816839Y3192794D1*
X4823134Y3188165D1*
X4829137Y3183165D1*
X4834828Y3177811D1*
X4840186Y3172123D1*
X4845190Y3166122D1*
X4849822Y3159830D1*
X4854066Y3153269D1*
X4857907Y3146465D1*
X4861329Y3139441D1*
X4864321Y3132223D1*
X4866872Y3124837D1*
X4868973Y3117311D1*
X4870615Y3109672D1*
X4871793Y3101948D1*
X4872502Y3094167D1*
X4872740Y3086320D1*
X4872506Y3078547D1*
X4870641Y3825113D2*
X4864453Y3802765D1*
X4854373Y3781880D1*
X4840726Y3763131D1*
X4823951Y3747120D1*
X4804586Y3734362D1*
X4783255Y3725266D1*
X4760642Y3720126D1*
X4737475Y3719105D1*
X4714497Y3722238D1*
X4692449Y3729423D1*
X4672038Y3740430D1*
X4653920Y3754904D1*
X4638678Y3772381D1*
X4626801Y3792299D1*
X4618672Y3814017D1*
X4614551Y3836837D1*
X4614571Y3860027D1*
X4618732Y3882840D1*
X4626899Y3904544D1*
X4638810Y3924441D1*
X4654083Y3941891D1*
X4672226Y3956334D1*
X4692656Y3967305D1*
X4714717Y3974452D1*
X4737699Y3977545D1*
X4760865Y3976484D1*
X4783468Y3971305D1*
X4804784Y3962172D1*
X4824126Y3949380D1*
X4840874Y3933340D1*
X4854488Y3914567D1*
X4864532Y3893665D1*
X4870681Y3871306D1*
X4872740Y3848320D1*
X4870641Y3825113D1*
X4854478Y4364860D2*
X4848289Y4342511D1*
X4838209Y4321627D1*
X4824563Y4302878D1*
X4807787Y4286867D1*
X4788423Y4274109D1*
X4767091Y4265013D1*
X4744478Y4259872D1*
X4721311Y4258852D1*
X4698334Y4261985D1*
X4676286Y4269170D1*
X4655874Y4280177D1*
X4637757Y4294651D1*
X4622514Y4312128D1*
X4610638Y4332045D1*
X4602508Y4353763D1*
X4598388Y4376584D1*
X4598408Y4399774D1*
X4602568Y4422587D1*
X4610735Y4444291D1*
X4622647Y4464188D1*
X4637919Y4481638D1*
X4656062Y4496081D1*
X4676492Y4507052D1*
X4698553Y4514199D1*
X4721536Y4517292D1*
X4744701Y4516231D1*
X4767305Y4511051D1*
X4788621Y4501919D1*
X4807963Y4489127D1*
X4824711Y4473086D1*
X4838325Y4454314D1*
X4848368Y4433412D1*
X4854518Y4411052D1*
X4856577Y4388067D1*
X4854478Y4364860D1*
Y5126860D2*
X4848289Y5104511D1*
X4838209Y5083627D1*
X4824563Y5064878D1*
X4807787Y5048867D1*
X4788423Y5036109D1*
X4767091Y5027013D1*
X4744478Y5021872D1*
X4721311Y5020852D1*
X4698334Y5023985D1*
X4676286Y5031170D1*
X4655874Y5042177D1*
X4637757Y5056651D1*
X4622514Y5074128D1*
X4610638Y5094045D1*
X4602508Y5115763D1*
X4598388Y5138584D1*
X4598408Y5161774D1*
X4602568Y5184587D1*
X4610735Y5206291D1*
X4622647Y5226188D1*
X4637919Y5243638D1*
X4656062Y5258081D1*
X4676492Y5269052D1*
X4698553Y5276199D1*
X4721536Y5279292D1*
X4744701Y5278231D1*
X4767305Y5273051D1*
X4788621Y5263919D1*
X4807963Y5251127D1*
X4824711Y5235086D1*
X4838325Y5216314D1*
X4848368Y5195412D1*
X4854518Y5173052D1*
X4856577Y5150067D1*
X4854478Y5126860D1*
X3397441Y3063113D2*
X3391253Y3040765D1*
X3381173Y3019880D1*
X3367526Y3001131D1*
X3350751Y2985120D1*
X3331386Y2972362D1*
X3310055Y2963266D1*
X3287442Y2958126D1*
X3264275Y2957105D1*
X3241297Y2960238D1*
X3219249Y2967423D1*
X3198838Y2978430D1*
X3180720Y2992904D1*
X3165478Y3010381D1*
X3153601Y3030299D1*
X3145472Y3052017D1*
X3141351Y3074837D1*
X3141371Y3098027D1*
X3145532Y3120840D1*
X3153699Y3142544D1*
X3165610Y3162441D1*
X3180883Y3179891D1*
X3199026Y3194334D1*
X3219456Y3205305D1*
X3241517Y3212452D1*
X3264499Y3215545D1*
X3287665Y3214484D1*
X3310268Y3209305D1*
X3331584Y3200172D1*
X3350926Y3187380D1*
X3367674Y3171340D1*
X3381288Y3152567D1*
X3391332Y3131665D1*
X3397481Y3109306D1*
X3399540Y3086320D1*
X3397441Y3063113D1*
Y3825113D2*
X3391253Y3802765D1*
X3381173Y3781880D1*
X3367526Y3763131D1*
X3350751Y3747120D1*
X3331386Y3734362D1*
X3310055Y3725266D1*
X3287442Y3720126D1*
X3264275Y3719105D1*
X3241297Y3722238D1*
X3219249Y3729423D1*
X3198838Y3740430D1*
X3180720Y3754904D1*
X3165478Y3772381D1*
X3153601Y3792299D1*
X3145472Y3814017D1*
X3141351Y3836837D1*
X3141371Y3860027D1*
X3145532Y3882840D1*
X3153699Y3904544D1*
X3165610Y3924441D1*
X3180883Y3941891D1*
X3199026Y3956334D1*
X3219456Y3967305D1*
X3241517Y3974452D1*
X3264499Y3977545D1*
X3287665Y3976484D1*
X3310268Y3971305D1*
X3331584Y3962172D1*
X3350926Y3949380D1*
X3367674Y3933340D1*
X3381288Y3914567D1*
X3391332Y3893665D1*
X3397481Y3871306D1*
X3399540Y3848320D1*
X3397441Y3825113D1*
X6494888Y4364860D2*
X6488699Y4342511D1*
X6478619Y4321627D1*
X6464973Y4302878D1*
X6448197Y4286867D1*
X6428833Y4274109D1*
X6407501Y4265013D1*
X6384888Y4259872D1*
X6361721Y4258852D1*
X6338744Y4261985D1*
X6316696Y4269170D1*
X6296284Y4280177D1*
X6278167Y4294651D1*
X6262924Y4312128D1*
X6251048Y4332045D1*
X6242918Y4353763D1*
X6238798Y4376584D1*
X6238818Y4399774D1*
X6242978Y4422587D1*
X6251145Y4444291D1*
X6263057Y4464188D1*
X6278329Y4481638D1*
X6296472Y4496081D1*
X6316902Y4507052D1*
X6338963Y4514199D1*
X6361946Y4517292D1*
X6385111Y4516231D1*
X6407715Y4511051D1*
X6429031Y4501919D1*
X6448373Y4489127D1*
X6465121Y4473086D1*
X6478735Y4454314D1*
X6488778Y4433412D1*
X6494928Y4411052D1*
X6496987Y4388067D1*
X6494888Y4364860D1*
Y5126860D2*
X6488699Y5104511D1*
X6478619Y5083627D1*
X6464973Y5064878D1*
X6448197Y5048867D1*
X6428833Y5036109D1*
X6407501Y5027013D1*
X6384888Y5021872D1*
X6361721Y5020852D1*
X6338744Y5023985D1*
X6316696Y5031170D1*
X6296284Y5042177D1*
X6278167Y5056651D1*
X6262924Y5074128D1*
X6251048Y5094045D1*
X6242918Y5115763D1*
X6238798Y5138584D1*
X6238818Y5161774D1*
X6242978Y5184587D1*
X6251145Y5206291D1*
X6263057Y5226188D1*
X6278329Y5243638D1*
X6296472Y5258081D1*
X6316902Y5269052D1*
X6338963Y5276199D1*
X6361946Y5279292D1*
X6385111Y5278231D1*
X6407715Y5273051D1*
X6429031Y5263919D1*
X6448373Y5251127D1*
X6465121Y5235086D1*
X6478735Y5216314D1*
X6488778Y5195412D1*
X6494928Y5173052D1*
X6496987Y5150067D1*
X6494888Y5126860D1*
X6511048Y3063113D2*
X6504859Y3040765D1*
X6494779Y3019880D1*
X6481133Y3001131D1*
X6464357Y2985120D1*
X6444993Y2972362D1*
X6423661Y2963266D1*
X6401048Y2958126D1*
X6377881Y2957105D1*
X6354904Y2960238D1*
X6332856Y2967423D1*
X6312444Y2978430D1*
X6294327Y2992904D1*
X6279084Y3010381D1*
X6267208Y3030299D1*
X6259078Y3052017D1*
X6254958Y3074837D1*
X6254978Y3098027D1*
X6259138Y3120840D1*
X6267305Y3142544D1*
X6279217Y3162441D1*
X6294489Y3179891D1*
X6312632Y3194334D1*
X6333062Y3205305D1*
X6355123Y3212452D1*
X6378106Y3215545D1*
X6401271Y3214484D1*
X6423875Y3209305D1*
X6445191Y3200172D1*
X6464533Y3187380D1*
X6481281Y3171340D1*
X6494895Y3152567D1*
X6504938Y3131665D1*
X6511088Y3109306D1*
X6513147Y3086320D1*
X6511048Y3063113D1*
Y3825113D2*
X6504859Y3802765D1*
X6494779Y3781880D1*
X6481133Y3763131D1*
X6464357Y3747120D1*
X6444993Y3734362D1*
X6423661Y3725266D1*
X6401048Y3720126D1*
X6377881Y3719105D1*
X6354904Y3722238D1*
X6332856Y3729423D1*
X6312444Y3740430D1*
X6294327Y3754904D1*
X6279084Y3772381D1*
X6267208Y3792299D1*
X6259078Y3814017D1*
X6254958Y3836837D1*
X6254978Y3860027D1*
X6259138Y3882840D1*
X6267305Y3904544D1*
X6279217Y3924441D1*
X6294489Y3941891D1*
X6312632Y3956334D1*
X6333062Y3967305D1*
X6355123Y3974452D1*
X6378106Y3977545D1*
X6401271Y3976484D1*
X6423875Y3971305D1*
X6445191Y3962172D1*
X6464533Y3949380D1*
X6481281Y3933340D1*
X6494895Y3914567D1*
X6504938Y3893665D1*
X6511088Y3871306D1*
X6513147Y3848320D1*
X6511048Y3825113D1*
X8870125Y6767690D2*
X1133621D1*
X1133637Y6262773D1*
Y1231182D1*
X6468573Y1231191D1*
X8870152D1*
X8870136Y1736107D1*
Y6767699D1*
X4136386Y4515067D2*
D16*
X3844868D1*
X3990627Y4660826D2*
Y4369308D1*
X4152549Y3213320D2*
X3861031D1*
X4006790Y3359079D2*
Y3067561D1*
X2693149Y6562940D2*
X2366631D1*
X2529890Y6726199D2*
Y6399681D1*
X8558387Y4982808D2*
Y5309326D1*
X8721646Y5146067D2*
X8395128D1*
X8574260Y3188931D2*
Y3515449D1*
X8737519Y3352190D2*
X8411001D1*
X4090146Y6562940D2*
X3763628D1*
X3926887Y6726199D2*
Y6399681D1*
X7638146Y6562940D2*
X7311628D1*
X7474887Y6726199D2*
Y6399681D1*
X7138146Y6562940D2*
X6811628D1*
X6974887Y6726199D2*
Y6399681D1*
X5469268Y4642057D2*
X5778987Y4642067D1*
X5624132Y4523114D2*
X5624128Y4642062D1*
X5485430Y3340315D2*
X5795149Y3340321D1*
X5640291Y3221370D2*
X5640289Y3340318D1*
X3124772Y4388064D2*
X3383289Y4388069D1*
X3254033Y4258808D2*
X3254028Y4517326D1*
X4872649Y3086320D2*
X4614131D1*
X4743390Y3215579D2*
Y2957061D1*
D17*
X3990627Y4515067D3*
D18*
Y5023067D3*
D17*
X4006790Y3213320D3*
D18*
Y3721320D3*
D20*
X1446387Y5146063D3*
D21*
Y4646063D3*
D20*
X1446380Y3352191D3*
D21*
X1446393Y2852191D3*
D20*
X3029890Y6562940D3*
D21*
X2529890D3*
D20*
X6077887Y6578813D3*
D21*
X5577887D3*
D20*
X8558387Y4646067D3*
D21*
Y5146067D3*
D20*
X8574260Y2852190D3*
D21*
Y3352190D3*
D20*
X4426887Y6562940D3*
D21*
X3926887D3*
D20*
X7474887D3*
D21*
X6974887D3*
D22*
X5624128Y4642062D3*
D23*
X5624123Y4769062D3*
X5624119Y4896062D3*
D22*
X5640289Y3340318D3*
D23*
X5640287Y3467318D3*
X5640284Y3594318D3*
D24*
X3254016Y5150067D3*
D25*
X3254030Y4388067D3*
D24*
X4743390Y3086320D3*
D25*
Y3848320D3*
D24*
X4727227Y4388067D3*
D25*
Y5150067D3*
D24*
X3270190Y3086320D3*
D25*
Y3848320D3*
D24*
X6367637Y4388067D3*
D25*
Y5150067D3*
D24*
X6383797Y3086320D3*
D25*
Y3848320D3*
M02*
