M48
METRIC,0000.00
T01C0.559
T02C0.9
T03C1.3
T04C4.0
%
T01
X+003254Y+005150
X+003254Y+004388
X+003270Y+003848
X+003270Y+003086
X+004743Y+003086
X+004743Y+003848
X+004727Y+004388
X+004727Y+005150
X+006368Y+005150
X+006368Y+004388
X+006384Y+003848
X+006384Y+003086
T02
X+003991Y+004515
X+003991Y+005023
X+004007Y+003721
X+004007Y+003213
X+005640Y+003340
X+005640Y+003467
X+005640Y+003594
X+005624Y+004642
X+005624Y+004769
X+005624Y+004896
T03
X+001446Y+005146
X+001446Y+004646
X+001446Y+003352
X+001446Y+002852
X+002530Y+006563
X+003030Y+006563
X+003927Y+006563
X+004427Y+006563
X+005578Y+006579
X+006078Y+006579
X+006975Y+006563
X+007475Y+006563
X+008558Y+005146
X+008558Y+004646
X+008574Y+003352
X+008574Y+002852
T04
X+008495Y+006484
X+008495Y+001515
X+001510Y+001515
X+001510Y+006484
T00
M30
