G04 DipTrace 4.2.0.1*
G04 TopMask.gbr*
%MOMM*%
G04 #@! TF.FileFunction,Soldermask,Top*
G04 #@! TF.Part,Single*
%ADD26C,4.0*%
%ADD32C,1.37*%
%ADD34C,1.37*%
%ADD36O,1.882X1.162*%
%ADD38R,1.882X1.162*%
%ADD40C,2.05*%
%ADD42R,2.05X2.05*%
%ADD44R,1.7X1.7*%
%ADD46C,1.7*%
%FSLAX35Y35*%
G04*
G71*
G90*
G75*
G01*
G04 TopMask*
%LPD*%
D46*
X3990627Y4515067D3*
D44*
Y5023067D3*
D46*
X4006790Y3213320D3*
D44*
Y3721320D3*
D26*
X8494887Y6483567D3*
Y1514687D3*
X1509890D3*
Y6483563D3*
D42*
X1446387Y5146063D3*
D40*
Y4646063D3*
D42*
X1446380Y3352191D3*
D40*
X1446393Y2852191D3*
D42*
X3029890Y6562940D3*
D40*
X2529890D3*
D42*
X6077887Y6578813D3*
D40*
X5577887D3*
D42*
X8558387Y4646067D3*
D40*
Y5146067D3*
D42*
X8574260Y2852190D3*
D40*
Y3352190D3*
D42*
X4426887Y6562940D3*
D40*
X3926887D3*
D42*
X7474887D3*
D40*
X6974887D3*
D38*
X5624128Y4642062D3*
D36*
X5624123Y4769062D3*
X5624119Y4896062D3*
D38*
X5640289Y3340318D3*
D36*
X5640287Y3467318D3*
X5640284Y3594318D3*
D34*
X3254016Y5150067D3*
D32*
X3254030Y4388067D3*
D34*
X4743390Y3086320D3*
D32*
Y3848320D3*
D34*
X4727227Y4388067D3*
D32*
Y5150067D3*
D34*
X3270190Y3086320D3*
D32*
Y3848320D3*
D34*
X6367637Y4388067D3*
D32*
Y5150067D3*
D34*
X6383797Y3086320D3*
D32*
Y3848320D3*
M02*
