G04 DipTrace 4.2.0.1*
G04 TopSilk.gbr*
%MOMM*%
G04 #@! TF.FileFunction,Legend,Top*
G04 #@! TF.Part,Single*
%ADD10C,0.12*%
%ADD19C,0.127*%
%ADD48C,0.19608*%
%ADD49C,0.07843*%
%ADD50C,0.39216*%
%ADD51C,0.15686*%
%ADD52C,0.23529*%
%FSLAX35Y35*%
G04*
G71*
G90*
G75*
G01*
G04 TopSilk*
%LPD*%
X4143027Y5073563D2*
D10*
Y4464570D1*
X3838227Y5073563D2*
Y4464570D1*
G03X4143027Y4464570I152400J-303D01*
G01*
Y5073563D2*
G03X3838227Y5073563I-152400J303D01*
G01*
X4159190Y3771817D2*
Y3162823D1*
X3854390Y3771817D2*
Y3162823D1*
G03X4159190Y3162823I152400J-303D01*
G01*
Y3771817D2*
G03X3854390Y3771817I-152400J303D01*
G01*
X1846387Y5396063D2*
D19*
Y4396063D1*
X1016387D1*
Y5396063D1*
X1846387D1*
G36*
X1582387Y5276063D2*
X1582507Y5277891D1*
X1582864Y5279687D1*
X1583453Y5281421D1*
X1584262Y5283063D1*
X1585280Y5284586D1*
X1586487Y5285963D1*
X1587864Y5287170D1*
X1589387Y5288188D1*
X1591029Y5288998D1*
X1592763Y5289586D1*
X1594559Y5289944D1*
X1596387Y5290063D1*
X1598214Y5289944D1*
X1600010Y5289586D1*
X1601744Y5288998D1*
X1603387Y5288188D1*
X1604909Y5287170D1*
X1606286Y5285963D1*
X1607494Y5284586D1*
X1608511Y5283063D1*
X1609321Y5281421D1*
X1609910Y5279687D1*
X1610267Y5277891D1*
X1610387Y5276063D1*
D1*
X1610267Y5274236D1*
X1609910Y5272440D1*
X1609321Y5270706D1*
X1608511Y5269063D1*
X1607494Y5267541D1*
X1606286Y5266164D1*
X1604909Y5264957D1*
X1603387Y5263939D1*
X1601744Y5263129D1*
X1600010Y5262541D1*
X1598214Y5262183D1*
X1596387Y5262063D1*
X1594559Y5262183D1*
X1592763Y5262541D1*
X1591029Y5263129D1*
X1589387Y5263939D1*
X1587864Y5264957D1*
X1586487Y5266164D1*
X1585280Y5267541D1*
X1584262Y5269063D1*
X1583453Y5270706D1*
X1582864Y5272440D1*
X1582507Y5274236D1*
X1582387Y5276063D1*
D1*
G37*
X1846374Y3602201D2*
D19*
X1846400Y2602201D1*
X1016400Y2602179D1*
X1016374Y3602179D1*
X1846374Y3602201D1*
G36*
X1582377Y3482194D2*
X1582497Y3484021D1*
X1582854Y3485818D1*
X1583443Y3487552D1*
X1584253Y3489194D1*
X1585270Y3490717D1*
X1586477Y3492094D1*
X1587854Y3493301D1*
X1589377Y3494319D1*
X1591019Y3495129D1*
X1592753Y3495717D1*
X1594549Y3496075D1*
X1596377Y3496194D1*
X1598204Y3496075D1*
X1600000Y3495717D1*
X1601734Y3495129D1*
X1603377Y3494319D1*
X1604899Y3493302D1*
X1606276Y3492094D1*
X1607484Y3490717D1*
X1608501Y3489195D1*
X1609311Y3487552D1*
X1609900Y3485818D1*
X1610257Y3484022D1*
X1610377Y3482195D1*
D1*
X1610257Y3480367D1*
X1609900Y3478571D1*
X1609311Y3476837D1*
X1608502Y3475195D1*
X1607484Y3473672D1*
X1606277Y3472295D1*
X1604900Y3471088D1*
X1603377Y3470070D1*
X1601735Y3469260D1*
X1600001Y3468672D1*
X1598205Y3468314D1*
X1596377Y3468194D1*
X1594550Y3468314D1*
X1592754Y3468671D1*
X1591020Y3469260D1*
X1589377Y3470070D1*
X1587855Y3471087D1*
X1586478Y3472295D1*
X1585270Y3473671D1*
X1584253Y3475194D1*
X1583443Y3476836D1*
X1582854Y3478571D1*
X1582497Y3480367D1*
X1582377Y3482194D1*
D1*
G37*
X3279890Y6162940D2*
D19*
X2279890D1*
Y6992940D1*
X3279890D1*
Y6162940D1*
G36*
X3159890Y6426940D2*
X3161718Y6426820D1*
X3163514Y6426463D1*
X3165248Y6425874D1*
X3166890Y6425065D1*
X3168413Y6424047D1*
X3169790Y6422840D1*
X3170997Y6421463D1*
X3172015Y6419940D1*
X3172824Y6418298D1*
X3173413Y6416564D1*
X3173770Y6414768D1*
X3173890Y6412940D1*
X3173770Y6411113D1*
X3173413Y6409317D1*
X3172824Y6407583D1*
X3172014Y6405940D1*
X3170997Y6404417D1*
X3169790Y6403041D1*
X3168413Y6401833D1*
X3166890Y6400816D1*
X3165248Y6400006D1*
X3163514Y6399417D1*
X3161717Y6399060D1*
X3159890Y6398940D1*
D1*
X3158063Y6399060D1*
X3156267Y6399417D1*
X3154533Y6400006D1*
X3152890Y6400816D1*
X3151367Y6401833D1*
X3149991Y6403041D1*
X3148783Y6404417D1*
X3147766Y6405940D1*
X3146956Y6407583D1*
X3146367Y6409317D1*
X3146010Y6411113D1*
X3145890Y6412940D1*
X3146010Y6414767D1*
X3146367Y6416564D1*
X3146956Y6418298D1*
X3147766Y6419940D1*
X3148783Y6421463D1*
X3149991Y6422840D1*
X3151367Y6424047D1*
X3152890Y6425064D1*
X3154533Y6425874D1*
X3156267Y6426463D1*
X3158063Y6426820D1*
X3159890Y6426940D1*
D1*
G37*
X6327887Y6178813D2*
D19*
X5327887D1*
Y7008813D1*
X6327887D1*
Y6178813D1*
G36*
X6207887Y6442813D2*
X6209714Y6442694D1*
X6211510Y6442336D1*
X6213244Y6441748D1*
X6214887Y6440938D1*
X6216409Y6439920D1*
X6217786Y6438713D1*
X6218994Y6437336D1*
X6220011Y6435813D1*
X6220821Y6434171D1*
X6221410Y6432437D1*
X6221767Y6430641D1*
X6221887Y6428813D1*
X6221767Y6426986D1*
X6221410Y6425190D1*
X6220821Y6423456D1*
X6220011Y6421813D1*
X6218994Y6420291D1*
X6217786Y6418914D1*
X6216409Y6417707D1*
X6214887Y6416689D1*
X6213244Y6415879D1*
X6211510Y6415291D1*
X6209714Y6414933D1*
X6207887Y6414813D1*
D1*
X6206059Y6414933D1*
X6204263Y6415291D1*
X6202529Y6415879D1*
X6200887Y6416689D1*
X6199364Y6417707D1*
X6197987Y6418914D1*
X6196780Y6420291D1*
X6195762Y6421813D1*
X6194953Y6423456D1*
X6194364Y6425190D1*
X6194007Y6426986D1*
X6193887Y6428813D1*
X6194007Y6430641D1*
X6194364Y6432437D1*
X6194952Y6434171D1*
X6195762Y6435813D1*
X6196780Y6437336D1*
X6197987Y6438713D1*
X6199364Y6439920D1*
X6200887Y6440938D1*
X6202529Y6441748D1*
X6204263Y6442336D1*
X6206059Y6442694D1*
X6207887Y6442813D1*
D1*
G37*
X8158387Y4396067D2*
D19*
Y5396067D1*
X8988387D1*
Y4396067D1*
X8158387D1*
G36*
X8422387Y4516067D2*
X8422267Y4514239D1*
X8421910Y4512443D1*
X8421321Y4510709D1*
X8420511Y4509067D1*
X8419494Y4507544D1*
X8418286Y4506167D1*
X8416909Y4504960D1*
X8415387Y4503942D1*
X8413744Y4503132D1*
X8412010Y4502544D1*
X8410214Y4502187D1*
X8408387Y4502067D1*
X8406559Y4502187D1*
X8404763Y4502544D1*
X8403029Y4503133D1*
X8401387Y4503942D1*
X8399864Y4504960D1*
X8398487Y4506167D1*
X8397280Y4507544D1*
X8396262Y4509067D1*
X8395452Y4510709D1*
X8394864Y4512443D1*
X8394507Y4514239D1*
X8394387Y4516067D1*
D1*
X8394507Y4517894D1*
X8394864Y4519690D1*
X8395452Y4521424D1*
X8396262Y4523067D1*
X8397280Y4524589D1*
X8398487Y4525966D1*
X8399864Y4527174D1*
X8401387Y4528191D1*
X8403029Y4529001D1*
X8404763Y4529590D1*
X8406559Y4529947D1*
X8408387Y4530067D1*
X8410214Y4529947D1*
X8412010Y4529590D1*
X8413744Y4529001D1*
X8415387Y4528191D1*
X8416909Y4527174D1*
X8418286Y4525966D1*
X8419494Y4524589D1*
X8420511Y4523067D1*
X8421321Y4521424D1*
X8421910Y4519690D1*
X8422267Y4517894D1*
X8422387Y4516067D1*
D1*
G37*
X8174260Y2602190D2*
D19*
Y3602190D1*
X9004260D1*
Y2602190D1*
X8174260D1*
G36*
X8438260Y2722190D2*
X8438140Y2720363D1*
X8437783Y2718567D1*
X8437194Y2716833D1*
X8436384Y2715190D1*
X8435367Y2713667D1*
X8434160Y2712291D1*
X8432783Y2711083D1*
X8431260Y2710066D1*
X8429618Y2709256D1*
X8427884Y2708667D1*
X8426087Y2708310D1*
X8424260Y2708190D1*
X8422433Y2708310D1*
X8420637Y2708667D1*
X8418903Y2709256D1*
X8417260Y2710066D1*
X8415737Y2711083D1*
X8414361Y2712291D1*
X8413153Y2713668D1*
X8412136Y2715190D1*
X8411326Y2716833D1*
X8410737Y2718567D1*
X8410380Y2720363D1*
X8410260Y2722190D1*
D1*
X8410380Y2724018D1*
X8410737Y2725814D1*
X8411326Y2727548D1*
X8412136Y2729190D1*
X8413153Y2730713D1*
X8414361Y2732090D1*
X8415737Y2733297D1*
X8417260Y2734314D1*
X8418903Y2735124D1*
X8420637Y2735713D1*
X8422433Y2736070D1*
X8424260Y2736190D1*
X8426087Y2736070D1*
X8427884Y2735713D1*
X8429618Y2735124D1*
X8431260Y2734315D1*
X8432783Y2733297D1*
X8434160Y2732090D1*
X8435367Y2730713D1*
X8436384Y2729190D1*
X8437194Y2727548D1*
X8437783Y2725814D1*
X8438140Y2724018D1*
X8438260Y2722190D1*
D1*
G37*
X4676887Y6162940D2*
D19*
X3676887D1*
Y6992940D1*
X4676887D1*
Y6162940D1*
G36*
X4556887Y6426940D2*
X4558714Y6426820D1*
X4560510Y6426463D1*
X4562244Y6425874D1*
X4563887Y6425065D1*
X4565409Y6424047D1*
X4566786Y6422840D1*
X4567994Y6421463D1*
X4569011Y6419940D1*
X4569821Y6418298D1*
X4570410Y6416564D1*
X4570767Y6414768D1*
X4570887Y6412940D1*
X4570767Y6411113D1*
X4570410Y6409317D1*
X4569821Y6407583D1*
X4569011Y6405940D1*
X4567994Y6404417D1*
X4566786Y6403041D1*
X4565409Y6401833D1*
X4563887Y6400816D1*
X4562244Y6400006D1*
X4560510Y6399417D1*
X4558714Y6399060D1*
X4556887Y6398940D1*
D1*
X4555059Y6399060D1*
X4553263Y6399417D1*
X4551529Y6400006D1*
X4549887Y6400816D1*
X4548364Y6401833D1*
X4546987Y6403041D1*
X4545780Y6404417D1*
X4544762Y6405940D1*
X4543953Y6407583D1*
X4543364Y6409317D1*
X4543007Y6411113D1*
X4542887Y6412940D1*
X4543007Y6414767D1*
X4543364Y6416564D1*
X4543952Y6418298D1*
X4544762Y6419940D1*
X4545780Y6421463D1*
X4546987Y6422840D1*
X4548364Y6424047D1*
X4549887Y6425064D1*
X4551529Y6425874D1*
X4553263Y6426463D1*
X4555059Y6426820D1*
X4556887Y6426940D1*
D1*
G37*
X7724887Y6162940D2*
D19*
X6724887D1*
Y6992940D1*
X7724887D1*
Y6162940D1*
G36*
X7604887Y6426940D2*
X7606714Y6426820D1*
X7608510Y6426463D1*
X7610244Y6425874D1*
X7611887Y6425065D1*
X7613409Y6424047D1*
X7614786Y6422840D1*
X7615994Y6421463D1*
X7617011Y6419940D1*
X7617821Y6418298D1*
X7618410Y6416564D1*
X7618767Y6414768D1*
X7618887Y6412940D1*
X7618767Y6411113D1*
X7618410Y6409317D1*
X7617821Y6407583D1*
X7617011Y6405940D1*
X7615994Y6404417D1*
X7614786Y6403041D1*
X7613409Y6401833D1*
X7611887Y6400816D1*
X7610244Y6400006D1*
X7608510Y6399417D1*
X7606714Y6399060D1*
X7604887Y6398940D1*
D1*
X7603059Y6399060D1*
X7601263Y6399417D1*
X7599529Y6400006D1*
X7597887Y6400816D1*
X7596364Y6401833D1*
X7594987Y6403041D1*
X7593780Y6404417D1*
X7592762Y6405940D1*
X7591953Y6407583D1*
X7591364Y6409317D1*
X7591007Y6411113D1*
X7590887Y6412940D1*
X7591007Y6414767D1*
X7591364Y6416564D1*
X7591952Y6418298D1*
X7592762Y6419940D1*
X7593780Y6421463D1*
X7594987Y6422840D1*
X7596364Y6424047D1*
X7597887Y6425064D1*
X7599529Y6425874D1*
X7601263Y6426463D1*
X7603059Y6426820D1*
X7604887Y6426940D1*
D1*
G37*
X5757434Y4563493D2*
D10*
G02X5757420Y4974640I-160007J205568D01*
G01*
X5757434Y4563493D2*
X5757420Y4974640D1*
G36*
X5800432Y4617068D2*
X5797169Y4617282D1*
X5793961Y4617919D1*
X5790865Y4618971D1*
X5787932Y4620417D1*
X5785213Y4622233D1*
X5782754Y4624390D1*
X5780598Y4626848D1*
X5778781Y4629567D1*
X5777334Y4632500D1*
X5776283Y4635597D1*
X5775645Y4638804D1*
X5775431Y4642067D1*
X5775645Y4645330D1*
X5776283Y4648537D1*
X5777334Y4651634D1*
X5778780Y4654567D1*
X5780597Y4657286D1*
X5782753Y4659745D1*
X5785211Y4661901D1*
X5787930Y4663718D1*
X5790863Y4665164D1*
X5793960Y4666216D1*
X5797167Y4666854D1*
X5800430Y4667068D1*
D1*
X5803693Y4666854D1*
X5806901Y4666216D1*
X5809997Y4665165D1*
X5812930Y4663719D1*
X5815649Y4661902D1*
X5818108Y4659746D1*
X5820264Y4657288D1*
X5822081Y4654569D1*
X5823528Y4651636D1*
X5824579Y4648539D1*
X5825217Y4645332D1*
X5825431Y4642069D1*
X5825217Y4638805D1*
X5824579Y4635598D1*
X5823528Y4632501D1*
X5822082Y4629569D1*
X5820265Y4626849D1*
X5818109Y4624391D1*
X5815651Y4622234D1*
X5812932Y4620418D1*
X5809999Y4618971D1*
X5806902Y4617920D1*
X5803695Y4617282D1*
X5800432Y4617068D1*
D1*
G37*
X5773594Y3261747D2*
D10*
G02X5773586Y3672894I-160004J205570D01*
G01*
X5773594Y3261747D2*
X5773586Y3672894D1*
G36*
X5816593Y3315321D2*
X5813330Y3315535D1*
X5810122Y3316173D1*
X5807026Y3317224D1*
X5804093Y3318670D1*
X5801374Y3320487D1*
X5798915Y3322643D1*
X5796759Y3325102D1*
X5794942Y3327821D1*
X5793496Y3330754D1*
X5792444Y3333850D1*
X5791806Y3337057D1*
X5791592Y3340321D1*
X5791806Y3343584D1*
X5792444Y3346791D1*
X5793495Y3349888D1*
X5794942Y3352821D1*
X5796758Y3355540D1*
X5798914Y3357998D1*
X5801373Y3360155D1*
X5804092Y3361971D1*
X5807025Y3363418D1*
X5810122Y3364469D1*
X5813329Y3365107D1*
X5816592Y3365321D1*
D1*
X5819855Y3365107D1*
X5823063Y3364469D1*
X5826159Y3363418D1*
X5829092Y3361972D1*
X5831811Y3360155D1*
X5834270Y3357999D1*
X5836426Y3355540D1*
X5838243Y3352821D1*
X5839689Y3349889D1*
X5840741Y3346792D1*
X5841379Y3343585D1*
X5841592Y3340322D1*
X5841379Y3337058D1*
X5840741Y3333851D1*
X5839690Y3330754D1*
X5838243Y3327821D1*
X5836427Y3325102D1*
X5834270Y3322644D1*
X5831812Y3320488D1*
X5829093Y3318671D1*
X5826160Y3317224D1*
X5823063Y3316173D1*
X5819856Y3315535D1*
X5816593Y3315321D1*
D1*
G37*
X3330220Y4972648D2*
D10*
X3177820Y4972645D1*
X3330227Y4565488D2*
X3330220Y4972648D1*
X3330227Y4565488D2*
X3177827Y4565485D1*
X3177820Y4972645D1*
X4667190Y3263740D2*
X4819590D1*
X4667190Y3670900D2*
Y3263740D1*
Y3670900D2*
X4819590D1*
Y3263740D1*
X4651027Y4565487D2*
X4803427D1*
X4651027Y4972647D2*
Y4565487D1*
Y4972647D2*
X4803427D1*
Y4565487D1*
X3193990Y3263740D2*
X3346390D1*
X3193990Y3670900D2*
Y3263740D1*
Y3670900D2*
X3346390D1*
Y3263740D1*
X6291437Y4565487D2*
X6443837D1*
X6291437Y4972647D2*
Y4565487D1*
Y4972647D2*
X6443837D1*
Y4565487D1*
X6307597Y3263740D2*
X6459997D1*
X6307597Y3670900D2*
Y3263740D1*
Y3670900D2*
X6459997D1*
Y3263740D1*
G36*
X3430374Y2372188D2*
X6859374D1*
Y1880061D1*
X3430374D1*
Y2372188D1*
G37*
G36*
X4731239Y1181691D2*
Y1189411D1*
X4733791Y1191984D1*
X4736342Y1261465D1*
Y1315506D1*
X4739453Y1318191D1*
X4742403Y1317858D1*
X4743996Y1315506D1*
Y1310359D1*
X4746548Y1297492D1*
X4749099Y1287199D1*
X4751651Y1274332D1*
X4756754Y1253745D1*
X4759305D1*
X4769511Y1256318D1*
Y1264038D1*
X4766959Y1274332D1*
X4764408Y1287199D1*
X4761856Y1297492D1*
X4759305Y1310359D1*
X4756754Y1312932D1*
Y1320652D1*
X4759865Y1323338D1*
X4761856Y1323226D1*
X4766959Y1318079D1*
Y1315506D1*
X4769511Y1310359D1*
X4774614Y1302639D1*
X4789922Y1271758D1*
X4795025Y1264038D1*
X4810334Y1233158D1*
X4815437Y1225438D1*
X4825642Y1204851D1*
X4828194Y1202278D1*
X4833297Y1204851D1*
X4838400Y1209998D1*
Y1212571D1*
X4830745Y1228011D1*
X4825642Y1235731D1*
X4812885Y1261465D1*
X4807782Y1269185D1*
X4789922Y1305212D1*
X4784819Y1312932D1*
X4779717Y1323226D1*
X4777165Y1325799D1*
Y1330946D1*
X4779870Y1333741D1*
X4781191Y1333323D1*
X4782268Y1330946D1*
X4797577Y1312932D1*
X4823091Y1287199D1*
X4825642D1*
X4833297Y1294919D1*
X4828194Y1302639D1*
X4797577Y1336092D1*
X4789922Y1343813D1*
X4795025Y1348959D1*
X4798765Y1348698D1*
X4800128Y1346386D1*
X4825642Y1330946D1*
X4833297Y1325799D1*
X4909840Y1279478D1*
X4912391D1*
X4917494Y1287199D1*
Y1292345D1*
X4909840Y1297492D1*
X4807782Y1359253D1*
X4802679Y1361826D1*
X4803608Y1364990D1*
X4806323Y1367182D1*
X4808632Y1366771D1*
X4810334Y1364399D1*
X4835848Y1356679D1*
X4853708Y1351533D1*
X4863914Y1348959D1*
X4866466D1*
X4869017Y1354106D1*
X4871568Y1361826D1*
X4856260Y1366973D1*
X4838400Y1372120D1*
X4828194Y1374693D1*
X4812885Y1379840D1*
X4807782Y1382413D1*
Y1390133D1*
X4945560Y1392706D1*
Y1405573D1*
X4807782Y1408147D1*
Y1410720D1*
X4869017Y1426160D1*
X4871568Y1428734D1*
X4869017Y1439027D1*
X4866466Y1441600D1*
X4807782Y1426160D1*
X4805877Y1424508D1*
X4804555Y1424658D1*
X4802679Y1426160D1*
X4812885Y1436454D1*
X4823091Y1441600D1*
X4835848Y1449320D1*
X4853708Y1459614D1*
X4879223Y1475054D1*
X4897083Y1485347D1*
X4909840Y1493068D1*
X4917494Y1498214D1*
Y1503361D1*
X4912391Y1511081D1*
X4909840D1*
X4884326Y1495641D1*
X4866466Y1485347D1*
X4840951Y1469907D1*
X4823091Y1459614D1*
X4797577Y1444174D1*
X4794845Y1442637D1*
X4792630Y1442802D1*
X4789922Y1444174D1*
X4835848Y1490494D1*
Y1493068D1*
X4828194Y1500788D1*
X4825642D1*
X4779717Y1454467D1*
X4777389Y1455451D1*
X4775284Y1458096D1*
X4775478Y1460246D1*
X4777165Y1462187D1*
X4779717Y1467334D1*
X4784819Y1475054D1*
X4789922Y1485347D1*
X4795025Y1493068D1*
X4802679Y1508508D1*
X4807782Y1516228D1*
X4812885Y1526521D1*
X4817988Y1534241D1*
X4823091Y1544535D1*
X4828194Y1552255D1*
X4833297Y1562548D1*
X4838400Y1570268D1*
X4840951Y1575415D1*
Y1580562D1*
X4838400Y1583135D1*
X4833297Y1585709D1*
X4830745D1*
X4828194Y1583135D1*
X4825642Y1577989D1*
X4820540Y1570268D1*
X4815437Y1559975D1*
X4810334Y1552255D1*
X4802679Y1536815D1*
X4797577Y1529095D1*
X4792474Y1518801D1*
X4787371Y1511081D1*
X4782268Y1500788D1*
X4777165Y1493068D1*
X4772062Y1482774D1*
X4766959Y1475054D1*
X4764408Y1469907D1*
X4763879Y1468161D1*
X4761567Y1466033D1*
X4759546Y1466259D1*
X4758268Y1468929D1*
X4759305Y1469907D1*
X4764408Y1490494D1*
X4766959Y1498214D1*
X4772062Y1518801D1*
X4774614Y1526521D1*
Y1531668D1*
X4769511Y1534241D1*
X4761856Y1536815D1*
X4759305Y1526521D1*
X4756754Y1518801D1*
X4751651Y1498214D1*
X4749099Y1490494D1*
X4746548Y1480201D1*
Y1472481D1*
X4743146Y1469907D1*
X4739744D1*
X4736342Y1472481D1*
Y1611442D1*
X4733791D1*
X4730389Y1608869D1*
X4726987D1*
X4723585Y1611442D1*
Y1472481D1*
X4721679Y1470828D1*
X4720389Y1471044D1*
X4718937Y1473172D1*
X4715930Y1485347D1*
X4713379Y1493068D1*
X4705725Y1523948D1*
X4703173Y1531668D1*
X4700622Y1534241D1*
X4695519D1*
X4687865Y1531668D1*
X4690416Y1523948D1*
X4700622Y1482774D1*
X4703173Y1475054D1*
X4705725Y1472481D1*
Y1464761D1*
X4703819Y1463108D1*
X4702497Y1463258D1*
X4700622Y1464761D1*
X4695519Y1472481D1*
X4690416Y1482774D1*
X4685313Y1490494D1*
X4680210Y1500788D1*
X4675107Y1508508D1*
X4670004Y1518801D1*
X4664902Y1526521D1*
X4659799Y1536815D1*
X4654696Y1544535D1*
X4649593Y1554828D1*
X4644490Y1562548D1*
X4639387Y1572842D1*
X4634284Y1580562D1*
X4631733Y1585709D1*
X4621527Y1580562D1*
X4618976Y1577989D1*
X4621527Y1572842D1*
X4626630Y1565122D1*
X4631733Y1554828D1*
X4636836Y1547108D1*
X4641939Y1536815D1*
X4647042Y1529095D1*
X4649593Y1523948D1*
X4654696Y1516228D1*
X4659799Y1505934D1*
X4664902Y1498214D1*
X4670004Y1487921D1*
X4675107Y1480201D1*
X4680210Y1469907D1*
X4685313Y1462187D1*
X4688339Y1459294D1*
X4687518Y1457656D1*
X4685058Y1455675D1*
X4682953Y1455844D1*
X4680771Y1458007D1*
X4680210Y1459614D1*
X4636836Y1503361D1*
X4636340Y1501537D1*
X4634284Y1498214D1*
X4629181Y1495641D1*
X4626630Y1493068D1*
X4675107Y1444174D1*
X4674578Y1442428D1*
X4672267Y1440300D1*
X4670148Y1440303D1*
X4667453Y1441600D1*
X4659799Y1446747D1*
X4641939Y1457040D1*
X4578153Y1495641D1*
X4560292Y1505934D1*
X4555190Y1508508D1*
X4550087D1*
X4544984Y1498214D1*
X4547535Y1495641D1*
X4565395Y1485347D1*
X4616424Y1454467D1*
X4634284Y1444174D1*
X4659799Y1428734D1*
X4664902Y1426160D1*
X4664485Y1424170D1*
X4662920Y1422060D1*
X4661662Y1422121D1*
X4659799Y1423587D1*
X4652144Y1426160D1*
X4626630Y1433880D1*
X4608770Y1439027D1*
X4598564Y1441600D1*
X4596013Y1439027D1*
X4593461Y1428734D1*
X4598564Y1426160D1*
X4606218Y1423587D1*
X4624079Y1418440D1*
X4649593Y1410720D1*
X4659799Y1408147D1*
Y1405573D1*
X4547535Y1403000D1*
X4435272D1*
X4323008Y1405573D1*
X4185231D1*
Y1392706D1*
X4305148Y1390133D1*
X4659799Y1387560D1*
X4657247Y1384986D1*
X4649593Y1382413D1*
X4598564Y1369546D1*
X4593461Y1366973D1*
X4596013Y1356679D1*
X4598564Y1354106D1*
X4649593Y1366973D1*
X4653845Y1369546D1*
X4658098D1*
X4662350Y1366973D1*
X4657247Y1361826D1*
X4621527Y1343813D1*
X4578153Y1320652D1*
X4544984Y1302639D1*
X4542432Y1300065D1*
Y1297492D1*
X4547535Y1287199D1*
X4573050Y1300065D1*
X4649593Y1341239D1*
X4662350Y1348959D1*
X4665752Y1351533D1*
X4669154D1*
X4672556Y1348959D1*
X4659799Y1336092D1*
X4654696Y1333519D1*
X4626630Y1307785D1*
X4624079Y1305212D1*
Y1302639D1*
X4631733Y1292345D1*
X4647042Y1305212D1*
X4677659Y1333519D1*
X4682916Y1338887D1*
X4684230Y1338475D1*
X4685896Y1335599D1*
X4685003Y1334029D1*
X4682762Y1330946D1*
X4677659Y1323226D1*
X4675107Y1318079D1*
X4649593Y1279478D1*
X4647042Y1274332D1*
X4616424Y1228011D1*
X4611321Y1217718D1*
X4613873Y1215144D1*
X4618976Y1212571D1*
X4624079D1*
X4626630Y1215144D1*
X4631733Y1222864D1*
X4634284Y1228011D1*
X4659799Y1266612D1*
X4662350Y1271758D1*
X4692967Y1318079D1*
Y1320652D1*
X4698070Y1325799D1*
X4701181Y1325687D1*
X4703949Y1322403D1*
X4700622Y1320652D1*
X4682762Y1266612D1*
X4680210Y1261465D1*
X4692967Y1256318D1*
X4695519Y1258892D1*
X4713379Y1312932D1*
Y1318079D1*
X4716490Y1320765D1*
X4718482Y1320652D1*
X4723585Y1315506D1*
Y1269185D1*
X4721033Y1266612D1*
X4718482Y1194557D1*
Y1181691D1*
X4731239D1*
G37*
X1948314Y1466749D2*
D48*
Y1339139D1*
X2021174D1*
X2133249Y1424212D2*
Y1339139D1*
Y1405962D2*
X2121176Y1418176D1*
X2108962Y1424212D1*
X2090853D1*
X2078639Y1418176D1*
X2066566Y1405962D1*
X2060389Y1387712D1*
Y1375639D1*
X2066566Y1357389D1*
X2078639Y1345316D1*
X2090853Y1339139D1*
X2108962D1*
X2121176Y1345316D1*
X2133249Y1357389D1*
X2239288Y1405962D2*
X2233251Y1418176D1*
X2215001Y1424212D1*
X2196751D1*
X2178501Y1418176D1*
X2172465Y1405962D1*
X2178501Y1393889D1*
X2190715Y1387712D1*
X2221038Y1381676D1*
X2233251Y1375639D1*
X2239288Y1363426D1*
Y1357389D1*
X2233251Y1345316D1*
X2215001Y1339139D1*
X2196751D1*
X2178501Y1345316D1*
X2172465Y1357389D1*
X2278503Y1387712D2*
X2351363D1*
Y1399926D1*
X2345327Y1412139D1*
X2339290Y1418176D1*
X2327077Y1424212D1*
X2308827D1*
X2296753Y1418176D1*
X2284540Y1405962D1*
X2278503Y1387712D1*
Y1375639D1*
X2284540Y1357389D1*
X2296753Y1345316D1*
X2308827Y1339139D1*
X2327077D1*
X2339290Y1345316D1*
X2351363Y1357389D1*
X2390579Y1424212D2*
Y1339139D1*
Y1387712D2*
X2396756Y1405962D1*
X2408829Y1418176D1*
X2421042Y1424212D1*
X2439292D1*
X2478508Y1318082D2*
X2593904D1*
X2651370Y1466749D2*
Y1363426D1*
X2657406Y1345316D1*
X2669620Y1339139D1*
X2681693D1*
X2633120Y1424212D2*
X2675656D1*
X2720908D2*
Y1339139D1*
Y1387712D2*
X2727085Y1405962D1*
X2739158Y1418176D1*
X2751372Y1424212D1*
X2769622D1*
X2808838Y1466749D2*
X2814874Y1460712D1*
X2821051Y1466749D1*
X2814874Y1472926D1*
X2808838Y1466749D1*
X2814874Y1424212D2*
Y1339139D1*
X2860267Y1424212D2*
Y1296603D1*
Y1405962D2*
X2872480Y1418035D1*
X2884553Y1424212D1*
X2902803D1*
X2915017Y1418035D1*
X2927090Y1405962D1*
X2933267Y1387712D1*
Y1375499D1*
X2927090Y1357389D1*
X2915017Y1345176D1*
X2902803Y1339139D1*
X2884553D1*
X2872480Y1345176D1*
X2860267Y1357389D1*
X2972482Y1318082D2*
X3087879D1*
X3200094Y1405962D2*
X3187881Y1418176D1*
X3175667Y1424212D1*
X3157558D1*
X3145344Y1418176D1*
X3133271Y1405962D1*
X3127094Y1387712D1*
Y1375639D1*
X3133271Y1357389D1*
X3145344Y1345316D1*
X3157558Y1339139D1*
X3175667D1*
X3187881Y1345316D1*
X3200094Y1357389D1*
X3239310Y1466749D2*
X3245347Y1460712D1*
X3251523Y1466749D1*
X3245347Y1472926D1*
X3239310Y1466749D1*
X3245347Y1424212D2*
Y1339139D1*
X3290739Y1424212D2*
Y1339139D1*
Y1387712D2*
X3296916Y1405962D1*
X3308989Y1418176D1*
X3321203Y1424212D1*
X3339453D1*
X3451668Y1405962D2*
X3439455Y1418176D1*
X3427241Y1424212D1*
X3409132D1*
X3396918Y1418176D1*
X3384845Y1405962D1*
X3378668Y1387712D1*
Y1375639D1*
X3384845Y1357389D1*
X3396918Y1345316D1*
X3409132Y1339139D1*
X3427241D1*
X3439455Y1345316D1*
X3451668Y1357389D1*
X3490884Y1424212D2*
Y1363426D1*
X3496921Y1345316D1*
X3509134Y1339139D1*
X3527384D1*
X3539457Y1345316D1*
X3557707Y1363426D1*
Y1424212D2*
Y1339139D1*
X3596923Y1466749D2*
X3602959Y1460712D1*
X3609136Y1466749D1*
X3602959Y1472926D1*
X3596923Y1466749D1*
X3602959Y1424212D2*
Y1339139D1*
X3666602Y1466749D2*
Y1363426D1*
X3672638Y1345316D1*
X3684852Y1339139D1*
X3696925D1*
X3648352Y1424212D2*
X3690888D1*
X3736141Y1318082D2*
X3851537D1*
X3890752Y1424212D2*
X3927252Y1339139D1*
X3963612Y1424212D1*
X4002828Y1442322D2*
X4015041Y1448499D1*
X4033291Y1466608D1*
Y1339139D1*
X1983145Y1190010D2*
D49*
X2002574Y1138966D1*
X2022004Y1190010D1*
X2037690D2*
X2040105Y1187595D1*
X2042575Y1190010D1*
X2040105Y1192480D1*
X2037690Y1190010D1*
X2040105Y1172995D2*
Y1138966D1*
X2058262Y1172995D2*
Y1138966D1*
Y1163280D2*
X2065562Y1170580D1*
X2070447Y1172995D1*
X2077691D1*
X2082576Y1170580D1*
X2084991Y1163280D1*
Y1138966D1*
X2129877Y1165695D2*
X2124992Y1170580D1*
X2120106Y1172995D1*
X2112862D1*
X2107977Y1170580D1*
X2103148Y1165695D1*
X2100677Y1158395D1*
Y1153566D1*
X2103148Y1146266D1*
X2107977Y1141437D1*
X2112862Y1138966D1*
X2120106D1*
X2124992Y1141437D1*
X2129877Y1146266D1*
X2145563Y1158395D2*
X2174707D1*
Y1163280D1*
X2172293Y1168166D1*
X2169878Y1170580D1*
X2164993Y1172995D1*
X2157693D1*
X2152863Y1170580D1*
X2147978Y1165695D1*
X2145563Y1158395D1*
Y1153566D1*
X2147978Y1146266D1*
X2152863Y1141437D1*
X2157693Y1138966D1*
X2164993D1*
X2169878Y1141437D1*
X2174707Y1146266D1*
X2190394Y1172995D2*
Y1138966D1*
Y1163280D2*
X2197694Y1170580D1*
X2202579Y1172995D1*
X2209823D1*
X2214708Y1170580D1*
X2217123Y1163280D1*
Y1138966D1*
X2240109Y1190010D2*
Y1148680D1*
X2242524Y1141437D1*
X2247409Y1138966D1*
X2252238D1*
X2232809Y1172995D2*
X2249824D1*
X2353747Y1177880D2*
X2351332Y1182710D1*
X2346447Y1187595D1*
X2341618Y1190010D1*
X2331903D1*
X2327018Y1187595D1*
X2322188Y1182710D1*
X2319718Y1177880D1*
X2317303Y1170580D1*
Y1158395D1*
X2319718Y1151151D1*
X2322188Y1146266D1*
X2327018Y1141437D1*
X2331903Y1138966D1*
X2341618D1*
X2346447Y1141437D1*
X2351332Y1146266D1*
X2353747Y1151151D1*
Y1158395D1*
X2341618D1*
X2381562Y1172995D2*
X2376733Y1170580D1*
X2371848Y1165695D1*
X2369433Y1158395D1*
Y1153566D1*
X2371848Y1146266D1*
X2376733Y1141437D1*
X2381562Y1138966D1*
X2388862D1*
X2393748Y1141437D1*
X2398577Y1146266D1*
X2401048Y1153566D1*
Y1158395D1*
X2398577Y1165695D1*
X2393748Y1170580D1*
X2388862Y1172995D1*
X2381562D1*
X2443463Y1165695D2*
X2441049Y1170580D1*
X2433749Y1172995D1*
X2426449D1*
X2419149Y1170580D1*
X2416734Y1165695D1*
X2419149Y1160866D1*
X2424034Y1158395D1*
X2436163Y1155980D1*
X2441049Y1153566D1*
X2443463Y1148680D1*
Y1146266D1*
X2441049Y1141437D1*
X2433749Y1138966D1*
X2426449D1*
X2419149Y1141437D1*
X2416734Y1146266D1*
X2485879Y1165695D2*
X2483464Y1170580D1*
X2476164Y1172995D1*
X2468864D1*
X2461564Y1170580D1*
X2459150Y1165695D1*
X2461564Y1160866D1*
X2466450Y1158395D1*
X2478579Y1155980D1*
X2483464Y1153566D1*
X2485879Y1148680D1*
Y1146266D1*
X2483464Y1141437D1*
X2476164Y1138966D1*
X2468864D1*
X2461564Y1141437D1*
X2459150Y1146266D1*
X2501565Y1158395D2*
X2530709D1*
Y1163280D1*
X2528294Y1168166D1*
X2525880Y1170580D1*
X2520994Y1172995D1*
X2513694D1*
X2508865Y1170580D1*
X2503980Y1165695D1*
X2501565Y1158395D1*
Y1153566D1*
X2503980Y1146266D1*
X2508865Y1141437D1*
X2513694Y1138966D1*
X2520994D1*
X2525880Y1141437D1*
X2530709Y1146266D1*
X2546395Y1190010D2*
Y1138966D1*
X2562082Y1190010D2*
X2564496Y1187595D1*
X2566967Y1190010D1*
X2564496Y1192480D1*
X2562082Y1190010D1*
X2564496Y1172995D2*
Y1138966D1*
X2582653Y1172995D2*
Y1138966D1*
Y1163280D2*
X2589953Y1170580D1*
X2594839Y1172995D1*
X2602082D1*
X2606968Y1170580D1*
X2609382Y1163280D1*
Y1138966D1*
X2629954Y1141380D2*
X2627483Y1138966D1*
X2625069Y1141380D1*
X2627483Y1143851D1*
X2629954Y1141380D1*
Y1136551D1*
X2627483Y1131666D1*
X2625069Y1129251D1*
X2697490Y1177824D2*
Y1180239D1*
X2699904Y1185124D1*
X2702319Y1187539D1*
X2707204Y1189953D1*
X2716919D1*
X2721748Y1187539D1*
X2724163Y1185124D1*
X2726634Y1180239D1*
Y1175410D1*
X2724163Y1170524D1*
X2719334Y1163280D1*
X2695019Y1138966D1*
X2729048D1*
X2759334Y1189953D2*
X2752034Y1187539D1*
X2747149Y1180239D1*
X2744734Y1168110D1*
Y1160810D1*
X2747149Y1148680D1*
X2752034Y1141380D1*
X2759334Y1138966D1*
X2764164D1*
X2771464Y1141380D1*
X2776293Y1148680D1*
X2778764Y1160810D1*
Y1168110D1*
X2776293Y1180239D1*
X2771464Y1187539D1*
X2764164Y1189953D1*
X2759334D1*
X2776293Y1180239D2*
X2747149Y1148680D1*
X2796921Y1177824D2*
Y1180239D1*
X2799335Y1185124D1*
X2801750Y1187539D1*
X2806635Y1189953D1*
X2816350D1*
X2821179Y1187539D1*
X2823594Y1185124D1*
X2826065Y1180239D1*
Y1175410D1*
X2823594Y1170524D1*
X2818765Y1163280D1*
X2794450Y1138966D1*
X2828479D1*
X2846636Y1177824D2*
Y1180239D1*
X2849051Y1185124D1*
X2851465Y1187539D1*
X2856351Y1189953D1*
X2866065D1*
X2870895Y1187539D1*
X2873309Y1185124D1*
X2875780Y1180239D1*
Y1175410D1*
X2873309Y1170524D1*
X2868480Y1163280D1*
X2844165Y1138966D1*
X2878195D1*
X2896296Y1143851D2*
X2893881Y1141380D1*
X2896296Y1138966D1*
X2898766Y1141380D1*
X2896296Y1143851D1*
X2517736Y2240431D2*
D50*
X2493590Y2264858D1*
X2457090Y2276931D1*
X2408517D1*
X2372017Y2264858D1*
X2347590Y2240431D1*
Y2216285D1*
X2359944Y2191858D1*
X2372017Y2179785D1*
X2396163Y2167712D1*
X2469163Y2143285D1*
X2493590Y2131212D1*
X2505663Y2118858D1*
X2517736Y2094712D1*
Y2058212D1*
X2493590Y2034065D1*
X2457090Y2021712D1*
X2408517D1*
X2372017Y2034065D1*
X2347590Y2058212D1*
X2766314Y2276931D2*
Y2021712D1*
X2596168Y2276931D1*
Y2021712D1*
X3103992Y2191858D2*
X3091638Y2179504D1*
X3103992Y2167431D1*
X3116065Y2179504D1*
X3103992Y2191858D1*
Y2046138D2*
X3091638Y2033785D1*
X3103992Y2021712D1*
X3116065Y2033785D1*
X3103992Y2046138D1*
X8250691Y5630862D2*
D48*
Y5503252D1*
X8323550D1*
X8435626Y5588325D2*
Y5503252D1*
Y5570075D2*
X8423553Y5582289D1*
X8411339Y5588325D1*
X8393229D1*
X8381016Y5582289D1*
X8368943Y5570075D1*
X8362766Y5551825D1*
Y5539752D1*
X8368943Y5521502D1*
X8381016Y5509429D1*
X8393229Y5503252D1*
X8411339D1*
X8423553Y5509429D1*
X8435626Y5521502D1*
X8541664Y5570075D2*
X8535628Y5582289D1*
X8517378Y5588325D1*
X8499128D1*
X8480878Y5582289D1*
X8474841Y5570075D1*
X8480878Y5558002D1*
X8493091Y5551825D1*
X8523414Y5545789D1*
X8535628Y5539752D1*
X8541664Y5527539D1*
Y5521502D1*
X8535628Y5509429D1*
X8517378Y5503252D1*
X8499128D1*
X8480878Y5509429D1*
X8474841Y5521502D1*
X8580880Y5551825D2*
X8653740D1*
Y5564039D1*
X8647703Y5576252D1*
X8641667Y5582289D1*
X8629453Y5588325D1*
X8611203D1*
X8599130Y5582289D1*
X8586917Y5570075D1*
X8580880Y5551825D1*
Y5539752D1*
X8586917Y5521502D1*
X8599130Y5509429D1*
X8611203Y5503252D1*
X8629453D1*
X8641667Y5509429D1*
X8653740Y5521502D1*
X8692955Y5588325D2*
Y5503252D1*
Y5551825D2*
X8699132Y5570075D1*
X8711205Y5582289D1*
X8723419Y5588325D1*
X8741669D1*
X8878171Y5503252D2*
X8829458Y5630862D1*
X8780885Y5503252D1*
X8799135Y5545789D2*
X8859921D1*
X8314191Y3852865D2*
Y3725255D1*
X8387050D1*
X8499126Y3810329D2*
Y3725255D1*
Y3792079D2*
X8487053Y3804292D1*
X8474839Y3810329D1*
X8456729D1*
X8444516Y3804292D1*
X8432443Y3792079D1*
X8426266Y3773829D1*
Y3761755D1*
X8432443Y3743505D1*
X8444516Y3731432D1*
X8456729Y3725255D1*
X8474839D1*
X8487053Y3731432D1*
X8499126Y3743505D1*
X8605164Y3792079D2*
X8599128Y3804292D1*
X8580878Y3810329D1*
X8562628D1*
X8544378Y3804292D1*
X8538341Y3792079D1*
X8544378Y3780005D1*
X8556591Y3773829D1*
X8586914Y3767792D1*
X8599128Y3761755D1*
X8605164Y3749542D1*
Y3743505D1*
X8599128Y3731432D1*
X8580878Y3725255D1*
X8562628D1*
X8544378Y3731432D1*
X8538341Y3743505D1*
X8644380Y3773829D2*
X8717240D1*
Y3786042D1*
X8711203Y3798255D1*
X8705167Y3804292D1*
X8692953Y3810329D1*
X8674703D1*
X8662630Y3804292D1*
X8650417Y3792079D1*
X8644380Y3773829D1*
Y3761755D1*
X8650417Y3743505D1*
X8662630Y3731432D1*
X8674703Y3725255D1*
X8692953D1*
X8705167Y3731432D1*
X8717240Y3743505D1*
X8756455Y3810329D2*
Y3725255D1*
Y3773829D2*
X8762632Y3792079D1*
X8774705Y3804292D1*
X8786919Y3810329D1*
X8805169D1*
X8844385Y3852865D2*
Y3725255D1*
X8899135D1*
X8917385Y3731432D1*
X8923421Y3737469D1*
X8929458Y3749542D1*
Y3767792D1*
X8923421Y3780005D1*
X8917385Y3786042D1*
X8899135Y3792079D1*
X8917385Y3798255D1*
X8923421Y3804292D1*
X8929458Y3816365D1*
Y3828579D1*
X8923421Y3840652D1*
X8917385Y3846829D1*
X8899135Y3852865D1*
X8844385D1*
Y3792079D2*
X8899135D1*
X1154567Y5564045D2*
X1209317D1*
X1227427Y5570082D1*
X1233604Y5576259D1*
X1239640Y5588332D1*
Y5606582D1*
X1233604Y5618655D1*
X1227427Y5624832D1*
X1209317Y5630868D1*
X1154567D1*
Y5503259D1*
X1278856Y5630868D2*
Y5503259D1*
Y5564045D2*
X1297106Y5582295D1*
X1309320Y5588332D1*
X1327570D1*
X1339643Y5582295D1*
X1345679Y5564045D1*
Y5503259D1*
X1415218Y5588332D2*
X1403145Y5582295D1*
X1390931Y5570082D1*
X1384895Y5551832D1*
Y5539759D1*
X1390931Y5521509D1*
X1403145Y5509436D1*
X1415218Y5503259D1*
X1433468D1*
X1445681Y5509436D1*
X1457755Y5521509D1*
X1463931Y5539759D1*
Y5551832D1*
X1457755Y5570082D1*
X1445681Y5582295D1*
X1433468Y5588332D1*
X1415218D1*
X1521397Y5630868D2*
Y5527545D1*
X1527434Y5509436D1*
X1539647Y5503259D1*
X1551720D1*
X1503147Y5588332D2*
X1545684D1*
X1621259D2*
X1609186Y5582295D1*
X1596972Y5570082D1*
X1590936Y5551832D1*
Y5539759D1*
X1596972Y5521509D1*
X1609186Y5509436D1*
X1621259Y5503259D1*
X1639509D1*
X1651722Y5509436D1*
X1663796Y5521509D1*
X1669972Y5539759D1*
Y5551832D1*
X1663796Y5570082D1*
X1651722Y5582295D1*
X1639509Y5588332D1*
X1621259D1*
X1806475Y5503259D2*
X1757761Y5630868D1*
X1709188Y5503259D1*
X1727438Y5545795D2*
X1788225D1*
X1122817Y3754292D2*
X1177567D1*
X1195677Y3760329D1*
X1201854Y3766505D1*
X1207890Y3778579D1*
Y3796829D1*
X1201854Y3808902D1*
X1195677Y3815079D1*
X1177567Y3821115D1*
X1122817D1*
Y3693505D1*
X1247106Y3821115D2*
Y3693505D1*
Y3754292D2*
X1265356Y3772542D1*
X1277570Y3778579D1*
X1295820D1*
X1307893Y3772542D1*
X1313929Y3754292D1*
Y3693505D1*
X1383468Y3778579D2*
X1371395Y3772542D1*
X1359181Y3760329D1*
X1353145Y3742079D1*
Y3730005D1*
X1359181Y3711755D1*
X1371395Y3699682D1*
X1383468Y3693505D1*
X1401718D1*
X1413931Y3699682D1*
X1426005Y3711755D1*
X1432181Y3730005D1*
Y3742079D1*
X1426005Y3760329D1*
X1413931Y3772542D1*
X1401718Y3778579D1*
X1383468D1*
X1489647Y3821115D2*
Y3717792D1*
X1495684Y3699682D1*
X1507897Y3693505D1*
X1519970D1*
X1471397Y3778579D2*
X1513934D1*
X1589509D2*
X1577436Y3772542D1*
X1565222Y3760329D1*
X1559186Y3742079D1*
Y3730005D1*
X1565222Y3711755D1*
X1577436Y3699682D1*
X1589509Y3693505D1*
X1607759D1*
X1619972Y3699682D1*
X1632046Y3711755D1*
X1638222Y3730005D1*
Y3742079D1*
X1632046Y3760329D1*
X1619972Y3772542D1*
X1607759Y3778579D1*
X1589509D1*
X1677438Y3821115D2*
Y3693505D1*
X1732188D1*
X1750438Y3699682D1*
X1756475Y3705719D1*
X1762511Y3717792D1*
Y3736042D1*
X1756475Y3748255D1*
X1750438Y3754292D1*
X1732188Y3760329D1*
X1750438Y3766505D1*
X1756475Y3772542D1*
X1762511Y3784615D1*
Y3796829D1*
X1756475Y3808902D1*
X1750438Y3815079D1*
X1732188Y3821115D1*
X1677438D1*
Y3760329D2*
X1732188D1*
X2980285Y5631980D2*
X2968212Y5625944D1*
X2955998Y5613730D1*
X2949962Y5601657D1*
Y5577371D1*
X2955998Y5565157D1*
X2968212Y5553084D1*
X2980285Y5546907D1*
X2998535Y5540871D1*
X3028998D1*
X3047108Y5546907D1*
X3059322Y5553084D1*
X3071395Y5565157D1*
X3077572Y5577371D1*
Y5601657D1*
X3071395Y5613730D1*
X3059322Y5625944D1*
X3047108Y5631980D1*
X2949962Y5671196D2*
X3077572D1*
X2949962Y5756269D2*
X3077572D1*
X3010748Y5671196D2*
Y5756269D1*
X3098629Y5795485D2*
Y5910881D1*
X2949962Y5950097D2*
X3077572D1*
Y6004847D1*
X3071395Y6023097D1*
X3065358Y6029133D1*
X3053285Y6035170D1*
X3035035D1*
X3022822Y6029133D1*
X3016785Y6023097D1*
X3010748Y6004847D1*
X3004572Y6023097D1*
X2998535Y6029133D1*
X2986462Y6035170D1*
X2974248D1*
X2962175Y6029133D1*
X2955998Y6023097D1*
X2949962Y6004847D1*
Y5950097D1*
X3010748D2*
Y6004847D1*
X4424912Y5663727D2*
X4412839Y5657690D1*
X4400625Y5645477D1*
X4394589Y5633404D1*
Y5609117D1*
X4400625Y5596904D1*
X4412839Y5584831D1*
X4424912Y5578654D1*
X4443162Y5572617D1*
X4473625D1*
X4491735Y5578654D1*
X4503948Y5584831D1*
X4516021Y5596904D1*
X4522198Y5609117D1*
Y5633404D1*
X4516021Y5645477D1*
X4503948Y5657690D1*
X4491735Y5663727D1*
X4394589Y5702943D2*
X4522198D1*
X4394589Y5788016D2*
X4522198D1*
X4455375Y5702943D2*
Y5788016D1*
X4543256Y5827231D2*
Y5942628D1*
X4522198Y6079130D2*
X4394589Y6030416D1*
X4522198Y5981843D1*
X4479662Y6000093D2*
Y6060880D1*
X7504658Y5711354D2*
X7492585Y5705317D1*
X7480372Y5693104D1*
X7474335Y5681031D1*
Y5656744D1*
X7480372Y5644531D1*
X7492585Y5632458D1*
X7504658Y5626281D1*
X7522908Y5620244D1*
X7553372D1*
X7571481Y5626281D1*
X7583695Y5632458D1*
X7595768Y5644531D1*
X7601945Y5656744D1*
Y5681031D1*
X7595768Y5693104D1*
X7583695Y5705317D1*
X7571481Y5711354D1*
X7553372D1*
Y5681031D1*
X7474335Y5835642D2*
X7601945D1*
X7474335Y5750569D1*
X7601945D1*
X7474335Y5874858D2*
X7601945D1*
Y5917395D1*
X7595768Y5935645D1*
X7583695Y5947858D1*
X7571481Y5953895D1*
X7553372Y5959931D1*
X7522908D1*
X7504658Y5953895D1*
X7492585Y5947858D1*
X7480372Y5935645D1*
X7474335Y5917395D1*
Y5874858D1*
X6045729Y5645477D2*
Y5584831D1*
X6100339Y5578794D1*
X6094302Y5584831D1*
X6088125Y5603081D1*
Y5621190D1*
X6094302Y5639440D1*
X6106375Y5651654D1*
X6124625Y5657690D1*
X6136698D1*
X6154948Y5651654D1*
X6167162Y5639440D1*
X6173198Y5621190D1*
Y5603081D1*
X6167162Y5584831D1*
X6160985Y5578794D1*
X6148912Y5572617D1*
X6045589Y5696906D2*
X6173198Y5745479D1*
X6045589Y5794052D1*
Y5833268D2*
X6173198D1*
X6045589Y5957557D2*
X6173198D1*
X6045589Y5872484D1*
X6173198D1*
X1973691Y4569955D2*
X1961477Y4582169D1*
X1949264Y4588205D1*
X1931154D1*
X1918941Y4582169D1*
X1906868Y4569955D1*
X1900691Y4551705D1*
Y4539632D1*
X1906868Y4521382D1*
X1918941Y4509309D1*
X1931154Y4503132D1*
X1949264D1*
X1961477Y4509309D1*
X1973691Y4521382D1*
X2012906Y4606315D2*
X2025120Y4612492D1*
X2043370Y4630601D1*
Y4503132D1*
X1900691Y5123202D2*
X1973550D1*
Y5135415D1*
X1967514Y5147629D1*
X1961477Y5153665D1*
X1949264Y5159702D1*
X1931014D1*
X1918941Y5153665D1*
X1906727Y5141452D1*
X1900691Y5123202D1*
Y5111129D1*
X1906727Y5092879D1*
X1918941Y5080806D1*
X1931014Y5074629D1*
X1949264D1*
X1961477Y5080806D1*
X1973550Y5092879D1*
X2012766Y5177811D2*
X2024979Y5183988D1*
X2043229Y5202098D1*
Y5074629D1*
X2005441Y2934829D2*
X1993227Y2947042D1*
X1981014Y2953079D1*
X1962904D1*
X1950691Y2947042D1*
X1938618Y2934829D1*
X1932441Y2916579D1*
Y2904505D1*
X1938618Y2886255D1*
X1950691Y2874182D1*
X1962904Y2868005D1*
X1981014D1*
X1993227Y2874182D1*
X2005441Y2886255D1*
X2050833Y2965152D2*
Y2971188D1*
X2056870Y2983402D1*
X2062906Y2989438D1*
X2075120Y2995475D1*
X2099406D1*
X2111479Y2989438D1*
X2117516Y2983402D1*
X2123693Y2971188D1*
Y2959115D1*
X2117516Y2946902D1*
X2105443Y2928792D1*
X2044656Y2868005D1*
X2129729D1*
X1948314Y3392825D2*
X2021174D1*
Y3405039D1*
X2015137Y3417252D1*
X2009101Y3423289D1*
X1996887Y3429325D1*
X1978637D1*
X1966564Y3423289D1*
X1954351Y3411075D1*
X1948314Y3392825D1*
Y3380752D1*
X1954351Y3362502D1*
X1966564Y3350429D1*
X1978637Y3344252D1*
X1996887D1*
X2009101Y3350429D1*
X2021174Y3362502D1*
X2066566Y3441398D2*
Y3447435D1*
X2072603Y3459648D1*
X2078639Y3465685D1*
X2090853Y3471721D1*
X2115139D1*
X2127212Y3465685D1*
X2133249Y3459648D1*
X2139426Y3447435D1*
Y3435362D1*
X2133249Y3423148D1*
X2121176Y3405039D1*
X2060389Y3344252D1*
X2145462D1*
X7802050Y3441542D2*
X7796014Y3453615D1*
X7783800Y3465829D1*
X7771727Y3471865D1*
X7747441D1*
X7735227Y3465829D1*
X7723154Y3453615D1*
X7716977Y3441542D1*
X7710941Y3423292D1*
Y3392829D1*
X7716977Y3374719D1*
X7723154Y3362505D1*
X7735227Y3350432D1*
X7747441Y3344255D1*
X7771727D1*
X7783800Y3350432D1*
X7796014Y3362505D1*
X7802050Y3374719D1*
Y3392829D1*
X7771727D1*
X7926339Y3471865D2*
Y3344255D1*
X7841266Y3471865D1*
Y3344255D1*
X7965555Y3471865D2*
Y3344255D1*
X8008091D1*
X8026341Y3350432D1*
X8038555Y3362505D1*
X8044591Y3374719D1*
X8050628Y3392829D1*
Y3423292D1*
X8044591Y3441542D1*
X8038555Y3453615D1*
X8026341Y3465829D1*
X8008091Y3471865D1*
X7965555D1*
X7726817Y2916238D2*
X7775390Y2788629D1*
X7823964Y2916238D1*
X7954289Y2885915D2*
X7948252Y2897988D1*
X7936039Y2910202D1*
X7923966Y2916238D1*
X7899679D1*
X7887466Y2910202D1*
X7875393Y2897988D1*
X7869216Y2885915D1*
X7863179Y2867665D1*
Y2837202D1*
X7869216Y2819092D1*
X7875393Y2806879D1*
X7887466Y2794806D1*
X7899679Y2788629D1*
X7923966D1*
X7936039Y2794806D1*
X7948252Y2806879D1*
X7954289Y2819092D1*
X8084614Y2885915D2*
X8078578Y2897988D1*
X8066364Y2910202D1*
X8054291Y2916238D1*
X8030005D1*
X8017791Y2910202D1*
X8005718Y2897988D1*
X7999541Y2885915D1*
X7993505Y2867665D1*
Y2837202D1*
X7999541Y2819092D1*
X8005718Y2806879D1*
X8017791Y2794806D1*
X8030005Y2788629D1*
X8054291D1*
X8066364Y2794806D1*
X8078578Y2806879D1*
X8084614Y2819092D1*
X7770300Y5235415D2*
X7764264Y5247488D1*
X7752050Y5259702D1*
X7739977Y5265738D1*
X7715691D1*
X7703477Y5259702D1*
X7691404Y5247488D1*
X7685227Y5235415D1*
X7679191Y5217165D1*
Y5186702D1*
X7685227Y5168592D1*
X7691404Y5156379D1*
X7703477Y5144306D1*
X7715691Y5138129D1*
X7739977D1*
X7752050Y5144306D1*
X7764264Y5156379D1*
X7770300Y5168592D1*
Y5186702D1*
X7739977D1*
X7894589Y5265738D2*
Y5138129D1*
X7809516Y5265738D1*
Y5138129D1*
X7933805Y5265738D2*
Y5138129D1*
X7976341D1*
X7994591Y5144306D1*
X8006805Y5156379D1*
X8012841Y5168592D1*
X8018878Y5186702D1*
Y5217165D1*
X8012841Y5235415D1*
X8006805Y5247488D1*
X7994591Y5259702D1*
X7976341Y5265738D1*
X7933805D1*
X7663317Y4694238D2*
X7711890Y4566629D1*
X7760464Y4694238D1*
X7890789Y4663915D2*
X7884752Y4675988D1*
X7872539Y4688202D1*
X7860466Y4694238D1*
X7836179D1*
X7823966Y4688202D1*
X7811893Y4675988D1*
X7805716Y4663915D1*
X7799679Y4645665D1*
Y4615202D1*
X7805716Y4597092D1*
X7811893Y4584879D1*
X7823966Y4572806D1*
X7836179Y4566629D1*
X7860466D1*
X7872539Y4572806D1*
X7884752Y4584879D1*
X7890789Y4597092D1*
X8021114Y4663915D2*
X8015078Y4675988D1*
X8002864Y4688202D1*
X7990791Y4694238D1*
X7966505D1*
X7954291Y4688202D1*
X7942218Y4675988D1*
X7936041Y4663915D1*
X7930005Y4645665D1*
Y4615202D1*
X7936041Y4597092D1*
X7942218Y4584879D1*
X7954291Y4572806D1*
X7966505Y4566629D1*
X7990791D1*
X8002864Y4572806D1*
X8015078Y4584879D1*
X8021114Y4597092D1*
X5490102Y5645477D2*
Y5584831D1*
X5544712Y5578794D1*
X5538675Y5584831D1*
X5532498Y5603081D1*
Y5621190D1*
X5538675Y5639440D1*
X5550748Y5651654D1*
X5568998Y5657690D1*
X5581072D1*
X5599322Y5651654D1*
X5611535Y5639440D1*
X5617572Y5621190D1*
Y5603081D1*
X5611535Y5584831D1*
X5605358Y5578794D1*
X5593285Y5572617D1*
X5489962Y5696906D2*
X5617572Y5745479D1*
X5489962Y5794052D1*
Y5833268D2*
X5617572D1*
X5489962Y5957557D2*
X5617572D1*
X5489962Y5872484D1*
X5617572D1*
X6917285Y5727227D2*
X6905212Y5721190D1*
X6892998Y5708977D1*
X6886962Y5696904D1*
Y5672617D1*
X6892998Y5660404D1*
X6905212Y5648331D1*
X6917285Y5642154D1*
X6935535Y5636117D1*
X6965998D1*
X6984108Y5642154D1*
X6996322Y5648331D1*
X7008395Y5660404D1*
X7014572Y5672617D1*
Y5696904D1*
X7008395Y5708977D1*
X6996322Y5721190D1*
X6984108Y5727227D1*
X6965998D1*
Y5696904D1*
X6886962Y5851516D2*
X7014572D1*
X6886962Y5766443D1*
X7014572D1*
X6886962Y5890731D2*
X7014572D1*
Y5933268D1*
X7008395Y5951518D1*
X6996322Y5963731D1*
X6984108Y5969768D1*
X6965998Y5975805D1*
X6935535D1*
X6917285Y5969768D1*
X6905212Y5963731D1*
X6892998Y5951518D1*
X6886962Y5933268D1*
Y5890731D1*
X3821658Y5774854D2*
X3809585Y5768817D1*
X3797372Y5756604D1*
X3791335Y5744531D1*
Y5720244D1*
X3797372Y5708031D1*
X3809585Y5695958D1*
X3821658Y5689781D1*
X3839908Y5683744D1*
X3870372D1*
X3888481Y5689781D1*
X3900695Y5695958D1*
X3912768Y5708031D1*
X3918945Y5720244D1*
Y5744531D1*
X3912768Y5756604D1*
X3900695Y5768817D1*
X3888481Y5774854D1*
X3870372D1*
Y5744531D1*
X3791335Y5899142D2*
X3918945D1*
X3791335Y5814069D1*
X3918945D1*
X3791335Y5938358D2*
X3918945D1*
Y5980895D1*
X3912768Y5999145D1*
X3900695Y6011358D1*
X3888481Y6017395D1*
X3870372Y6023431D1*
X3839908D1*
X3821658Y6017395D1*
X3809585Y6011358D1*
X3797372Y5999145D1*
X3791335Y5980895D1*
Y5938358D1*
X2504035Y5774854D2*
X2491962Y5768817D1*
X2479748Y5756604D1*
X2473712Y5744531D1*
Y5720244D1*
X2479748Y5708031D1*
X2491962Y5695958D1*
X2504035Y5689781D1*
X2522285Y5683744D1*
X2552748D1*
X2570858Y5689781D1*
X2583072Y5695958D1*
X2595145Y5708031D1*
X2601322Y5720244D1*
Y5744531D1*
X2595145Y5756604D1*
X2583072Y5768817D1*
X2570858Y5774854D1*
X2552748D1*
Y5744531D1*
X2473712Y5899142D2*
X2601322D1*
X2473712Y5814069D1*
X2601322D1*
X2473712Y5938358D2*
X2601322D1*
Y5980895D1*
X2595145Y5999145D1*
X2583072Y6011358D1*
X2570858Y6017395D1*
X2552748Y6023431D1*
X2522285D1*
X2504035Y6017395D1*
X2491962Y6011358D1*
X2479748Y5999145D1*
X2473712Y5980895D1*
Y5938358D1*
X3363984Y4337231D2*
X3376198Y4343408D1*
X3394448Y4361518D1*
Y4234049D1*
X3470163Y4361518D2*
X3451913Y4355481D1*
X3439700Y4337231D1*
X3433663Y4306908D1*
Y4288658D1*
X3439700Y4258335D1*
X3451913Y4240085D1*
X3470163Y4234049D1*
X3482236D1*
X3500486Y4240085D1*
X3512559Y4258335D1*
X3518736Y4288658D1*
Y4306908D1*
X3512559Y4337231D1*
X3500486Y4355481D1*
X3482236Y4361518D1*
X3470163D1*
X3512559Y4337231D2*
X3439700Y4258335D1*
X3557952Y4361658D2*
Y4234049D1*
X3618739Y4319122D2*
X3557952Y4258335D1*
X3582239Y4282622D2*
X3624775Y4234049D1*
X4209917Y4337231D2*
X4222131Y4343408D1*
X4240381Y4361518D1*
Y4234049D1*
X4316097Y4361518D2*
X4297847Y4355481D1*
X4285633Y4337231D1*
X4279597Y4306908D1*
Y4288658D1*
X4285633Y4258335D1*
X4297847Y4240085D1*
X4316097Y4234049D1*
X4328170D1*
X4346420Y4240085D1*
X4358493Y4258335D1*
X4364670Y4288658D1*
Y4306908D1*
X4358493Y4337231D1*
X4346420Y4355481D1*
X4328170Y4361518D1*
X4316097D1*
X4358493Y4337231D2*
X4285633Y4258335D1*
X4403885Y4319122D2*
Y4258335D1*
X4409922Y4240226D1*
X4422135Y4234049D1*
X4440385D1*
X4452458Y4240226D1*
X4470708Y4258335D1*
Y4319122D2*
Y4234049D1*
X4889340Y4313875D2*
D51*
X4899111Y4318817D1*
X4913711Y4333304D1*
Y4231329D1*
X4974283Y4333304D2*
X4959683Y4328475D1*
X4949912Y4313875D1*
X4945083Y4289617D1*
Y4275017D1*
X4949912Y4250758D1*
X4959683Y4236158D1*
X4974283Y4231329D1*
X4983942D1*
X4998542Y4236158D1*
X5008200Y4250758D1*
X5013142Y4275017D1*
Y4289617D1*
X5008200Y4313875D1*
X4998542Y4328475D1*
X4983942Y4333304D1*
X4974283D1*
X5008200Y4313875D2*
X4949912Y4250758D1*
X5073714Y4333304D2*
X5059114Y4328475D1*
X5049344Y4313875D1*
X5044514Y4289617D1*
Y4275017D1*
X5049344Y4250758D1*
X5059114Y4236158D1*
X5073714Y4231329D1*
X5083373D1*
X5097973Y4236158D1*
X5107631Y4250758D1*
X5112573Y4275017D1*
Y4289617D1*
X5107631Y4313875D1*
X5097973Y4328475D1*
X5083373Y4333304D1*
X5073714D1*
X5107631Y4313875D2*
X5049344Y4250758D1*
X5721665Y4353440D2*
D52*
Y4251352D1*
Y4324296D2*
X5743565Y4346196D1*
X5758221Y4353440D1*
X5779953D1*
X5794609Y4346196D1*
X5801853Y4324296D1*
Y4251352D1*
X5848911Y4353440D2*
Y4200308D1*
Y4331540D2*
X5863568Y4346027D1*
X5878055Y4353440D1*
X5899955D1*
X5914611Y4346027D1*
X5929099Y4331540D1*
X5936511Y4309640D1*
Y4294983D1*
X5929099Y4273252D1*
X5914611Y4258596D1*
X5899955Y4251352D1*
X5878055D1*
X5863568Y4258596D1*
X5848911Y4273252D1*
X5983570Y4353440D2*
Y4251352D1*
Y4324296D2*
X6005470Y4346196D1*
X6020126Y4353440D1*
X6041858D1*
X6056514Y4346196D1*
X6063758Y4324296D1*
Y4251352D1*
X6479583Y4356359D2*
D51*
X6489354Y4361300D1*
X6503954Y4375788D1*
Y4273812D1*
X6535327Y4375900D2*
Y4273812D1*
X6583956Y4341871D2*
X6535327Y4293242D1*
X6554756Y4312671D2*
X6588785Y4273812D1*
X3399927Y2984281D2*
D48*
X3412141Y2990458D1*
X3430391Y3008568D1*
Y2881099D1*
X3506107Y3008568D2*
X3487857Y3002531D1*
X3475643Y2984281D1*
X3469607Y2953958D1*
Y2935708D1*
X3475643Y2905385D1*
X3487857Y2887135D1*
X3506107Y2881099D1*
X3518180D1*
X3536430Y2887135D1*
X3548503Y2905385D1*
X3554680Y2935708D1*
Y2953958D1*
X3548503Y2984281D1*
X3536430Y3002531D1*
X3518180Y3008568D1*
X3506107D1*
X3548503Y2984281D2*
X3475643Y2905385D1*
X3593895Y3008708D2*
Y2881099D1*
X3654682Y2966172D2*
X3593895Y2905385D1*
X3618182Y2929672D2*
X3660718Y2881099D1*
X4245861Y2984281D2*
X4258074Y2990458D1*
X4276324Y3008568D1*
Y2881099D1*
X4352040Y3008568D2*
X4333790Y3002531D1*
X4321576Y2984281D1*
X4315540Y2953958D1*
Y2935708D1*
X4321576Y2905385D1*
X4333790Y2887135D1*
X4352040Y2881099D1*
X4364113D1*
X4382363Y2887135D1*
X4394436Y2905385D1*
X4400613Y2935708D1*
Y2953958D1*
X4394436Y2984281D1*
X4382363Y3002531D1*
X4364113Y3008568D1*
X4352040D1*
X4394436Y2984281D2*
X4321576Y2905385D1*
X4439829Y2966172D2*
Y2905385D1*
X4445865Y2887276D1*
X4458079Y2881099D1*
X4476329D1*
X4488402Y2887276D1*
X4506652Y2905385D1*
Y2966172D2*
Y2881099D1*
X4925283Y2960925D2*
D51*
X4935054Y2965867D1*
X4949654Y2980354D1*
Y2878379D1*
X5010227Y2980354D2*
X4995627Y2975525D1*
X4985856Y2960925D1*
X4981027Y2936667D1*
Y2922067D1*
X4985856Y2897808D1*
X4995627Y2883208D1*
X5010227Y2878379D1*
X5019885D1*
X5034485Y2883208D1*
X5044144Y2897808D1*
X5049085Y2922067D1*
Y2936667D1*
X5044144Y2960925D1*
X5034485Y2975525D1*
X5019885Y2980354D1*
X5010227D1*
X5044144Y2960925D2*
X4985856Y2897808D1*
X5109658Y2980354D2*
X5095058Y2975525D1*
X5085287Y2960925D1*
X5080458Y2936667D1*
Y2922067D1*
X5085287Y2897808D1*
X5095058Y2883208D1*
X5109658Y2878379D1*
X5119316D1*
X5133916Y2883208D1*
X5143575Y2897808D1*
X5148516Y2922067D1*
Y2936667D1*
X5143575Y2960925D1*
X5133916Y2975525D1*
X5119316Y2980354D1*
X5109658D1*
X5143575Y2960925D2*
X5085287Y2897808D1*
X5757608Y3000490D2*
D52*
Y2898402D1*
Y2971346D2*
X5779508Y2993246D1*
X5794164Y3000490D1*
X5815896D1*
X5830552Y2993246D1*
X5837796Y2971346D1*
Y2898402D1*
X5884855Y3000490D2*
Y2847358D1*
Y2978590D2*
X5899511Y2993077D1*
X5913999Y3000490D1*
X5935899D1*
X5950555Y2993077D1*
X5965042Y2978590D1*
X5972455Y2956690D1*
Y2942033D1*
X5965042Y2920302D1*
X5950555Y2905646D1*
X5935899Y2898402D1*
X5913999D1*
X5899511Y2905646D1*
X5884855Y2920302D1*
X6019514Y3000490D2*
Y2898402D1*
Y2971346D2*
X6041414Y2993246D1*
X6056070Y3000490D1*
X6077801D1*
X6092457Y2993246D1*
X6099701Y2971346D1*
Y2898402D1*
X6515527Y3003409D2*
D51*
X6525297Y3008350D1*
X6539897Y3022838D1*
Y2920862D1*
X6571270Y3022950D2*
Y2920862D1*
X6619899Y2988921D2*
X6571270Y2940292D1*
X6590699Y2959721D2*
X6624728Y2920862D1*
X3682563Y4804069D2*
D48*
X3670490Y4798032D1*
X3658277Y4785819D1*
X3652240Y4773746D1*
Y4749459D1*
X3658277Y4737246D1*
X3670490Y4725173D1*
X3682563Y4718996D1*
X3700813Y4712959D1*
X3731277D1*
X3749386Y4718996D1*
X3761600Y4725173D1*
X3773673Y4737246D1*
X3779850Y4749459D1*
Y4773746D1*
X3773673Y4785819D1*
X3761600Y4798032D1*
X3749386Y4804069D1*
X3676667Y4843284D2*
X3670490Y4855498D1*
X3652381Y4873748D1*
X3779850D1*
X3698727Y3403104D2*
X3686654Y3397067D1*
X3674440Y3384854D1*
X3668404Y3372781D1*
Y3348494D1*
X3674440Y3336281D1*
X3686654Y3324208D1*
X3698727Y3318031D1*
X3716977Y3311994D1*
X3747440D1*
X3765550Y3318031D1*
X3777763Y3324208D1*
X3789836Y3336281D1*
X3796013Y3348494D1*
Y3372781D1*
X3789836Y3384854D1*
X3777763Y3397067D1*
X3765550Y3403104D1*
X3698867Y3448497D2*
X3692830D1*
X3680617Y3454533D1*
X3674580Y3460570D1*
X3668544Y3472783D1*
Y3497070D1*
X3674580Y3509143D1*
X3680617Y3515179D1*
X3692830Y3521356D1*
X3704904D1*
X3717117Y3515179D1*
X3735227Y3503106D1*
X3796013Y3442320D1*
Y3527393D1*
X1410907Y4327990D2*
Y4230844D1*
X1404871Y4212594D1*
X1398694Y4206557D1*
X1386621Y4200380D1*
X1374407D1*
X1362334Y4206557D1*
X1356298Y4212594D1*
X1350121Y4230844D1*
Y4242917D1*
X1450123Y4303563D2*
X1462336Y4309740D1*
X1480586Y4327850D1*
Y4200380D1*
X1442660Y2534100D2*
X1442663Y2436954D1*
X1436627Y2418704D1*
X1430450Y2412667D1*
X1418377Y2406490D1*
X1406164D1*
X1394090Y2412666D1*
X1388054Y2418703D1*
X1381876Y2436953D1*
Y2449026D1*
X1488054Y2503638D2*
Y2509675D1*
X1494090Y2521888D1*
X1500126Y2527925D1*
X1512339Y2533962D1*
X1536626D1*
X1548699Y2527926D1*
X1554736Y2521890D1*
X1560913Y2509677D1*
Y2497603D1*
X1554737Y2485390D1*
X1542664Y2467280D1*
X1481879Y2406492D1*
X1566952Y2406494D1*
X2065512Y6634397D2*
Y6537251D1*
X2059476Y6519001D1*
X2053299Y6512964D1*
X2041226Y6506787D1*
X2029012D1*
X2016939Y6512964D1*
X2010903Y6519001D1*
X2004726Y6537251D1*
Y6549324D1*
X2116942Y6634256D2*
X2183624D1*
X2147265Y6585683D1*
X2165515D1*
X2177588Y6579647D1*
X2183624Y6573610D1*
X2189801Y6555360D1*
Y6543287D1*
X2183624Y6525037D1*
X2171551Y6512824D1*
X2153301Y6506787D1*
X2135051D1*
X2116942Y6512824D1*
X2110905Y6519001D1*
X2104728Y6531074D1*
X5126367Y6634397D2*
Y6537251D1*
X5120331Y6519001D1*
X5114154Y6512964D1*
X5102081Y6506787D1*
X5089867D1*
X5077794Y6512964D1*
X5071758Y6519001D1*
X5065581Y6537251D1*
Y6549324D1*
X5226370Y6506787D2*
Y6634256D1*
X5165583Y6549324D1*
X5256693D1*
X8510979Y4327990D2*
Y4230844D1*
X8504942Y4212594D1*
X8498766Y4206557D1*
X8486692Y4200380D1*
X8474479D1*
X8462406Y4206557D1*
X8456369Y4212594D1*
X8450192Y4230844D1*
Y4242917D1*
X8623054Y4327850D2*
X8562408D1*
X8556372Y4273240D1*
X8562408Y4279277D1*
X8580658Y4285454D1*
X8598768D1*
X8617018Y4279277D1*
X8629231Y4267204D1*
X8635268Y4248954D1*
Y4236880D1*
X8629231Y4218630D1*
X8617018Y4206417D1*
X8598768Y4200380D1*
X8580658D1*
X8562408Y4206417D1*
X8556372Y4212594D1*
X8550195Y4224667D1*
X8545597Y2554520D2*
Y2457374D1*
X8539561Y2439124D1*
X8533384Y2433087D1*
X8521311Y2426910D1*
X8509097D1*
X8497024Y2433087D1*
X8490988Y2439124D1*
X8484811Y2457374D1*
Y2469447D1*
X8657673Y2536270D2*
X8651636Y2548343D1*
X8633386Y2554380D1*
X8621313D1*
X8603063Y2548343D1*
X8590850Y2530093D1*
X8584813Y2499770D1*
Y2469447D1*
X8590850Y2445160D1*
X8603063Y2432947D1*
X8621313Y2426910D1*
X8627350D1*
X8645459Y2432947D1*
X8657673Y2445160D1*
X8663709Y2463410D1*
Y2469447D1*
X8657673Y2487697D1*
X8645459Y2499770D1*
X8627350Y2505807D1*
X8621313D1*
X8603063Y2499770D1*
X8590850Y2487697D1*
X8584813Y2469447D1*
X3462509Y6634397D2*
Y6537251D1*
X3456472Y6519001D1*
X3450296Y6512964D1*
X3438222Y6506787D1*
X3426009D1*
X3413936Y6512964D1*
X3407899Y6519001D1*
X3401722Y6537251D1*
Y6549324D1*
X3526011Y6506787D2*
X3586798Y6634256D1*
X3501725D1*
X6542329Y6634397D2*
Y6537251D1*
X6536293Y6519001D1*
X6530116Y6512964D1*
X6518043Y6506787D1*
X6505829D1*
X6493756Y6512964D1*
X6487720Y6519001D1*
X6481543Y6537251D1*
Y6549324D1*
X6611868Y6634256D2*
X6593758Y6628220D1*
X6587581Y6616147D1*
Y6603933D1*
X6593758Y6591860D1*
X6605831Y6585683D1*
X6630118Y6579647D1*
X6648368Y6573610D1*
X6660441Y6561397D1*
X6666478Y6549324D1*
Y6531074D1*
X6660441Y6519001D1*
X6654405Y6512824D1*
X6636155Y6506787D1*
X6611868D1*
X6593758Y6512824D1*
X6587581Y6519001D1*
X6581545Y6531074D1*
Y6549324D1*
X6587581Y6561397D1*
X6599795Y6573610D1*
X6617905Y6579647D1*
X6642191Y6585683D1*
X6654405Y6591860D1*
X6660441Y6603933D1*
Y6616147D1*
X6654405Y6628220D1*
X6636155Y6634256D1*
X6611868D1*
X5125442Y4722063D2*
X5131338Y4709990D1*
X5143552Y4697777D1*
X5155766Y4691741D1*
X5174016Y4685564D1*
X5204339Y4685565D1*
X5222589Y4691743D1*
X5234662Y4697780D1*
X5246875Y4709994D1*
X5252911Y4722067D1*
X5252910Y4746353D1*
X5246873Y4758567D1*
X5234659Y4770639D1*
X5222586Y4776675D1*
X5204336Y4782852D1*
X5174013Y4782851D1*
X5155763Y4776673D1*
X5143550Y4770636D1*
X5131337Y4758563D1*
X5125441Y4746349D1*
X5125442Y4722063D1*
X5228624Y4740316D2*
X5265123Y4776677D1*
X5149865Y4822066D2*
X5143688Y4834279D1*
X5125578Y4852528D1*
X5253047Y4852533D1*
X5141605Y3393021D2*
X5147501Y3380948D1*
X5159715Y3368735D1*
X5171929Y3362699D1*
X5190179Y3356522D1*
X5220502D1*
X5238752Y3362700D1*
X5250825Y3368736D1*
X5263038Y3380950D1*
X5269074Y3393023D1*
Y3417310D1*
X5263037Y3429523D1*
X5250823Y3441596D1*
X5238750Y3447632D1*
X5220500Y3453809D1*
X5190177Y3453808D1*
X5171927Y3447631D1*
X5159714Y3441594D1*
X5147500Y3429521D1*
X5141604Y3417308D1*
X5141605Y3393021D1*
X5244787Y3411273D2*
X5281287Y3447633D1*
X5172066Y3499201D2*
X5166030D1*
X5153816Y3505237D1*
X5147780Y3511273D1*
X5141743Y3523487D1*
X5141742Y3547773D1*
X5147779Y3559846D1*
X5153815Y3565883D1*
X5166029Y3572060D1*
X5178102D1*
X5190315Y3565884D1*
X5208425Y3553811D1*
X5269213Y3493026D1*
X5269211Y3578099D1*
X3052625Y4691687D2*
X3052624Y4746297D1*
X3046447Y4764547D1*
X3040410Y4770723D1*
X3028337Y4776760D1*
X3016123Y4776759D1*
X3004050Y4770723D1*
X2997873Y4764546D1*
X2991837Y4746296D1*
X2991838Y4691686D1*
X3119448Y4691688D1*
X3052624Y4734224D2*
X3119446Y4776761D1*
X3016263Y4815975D2*
X3010086Y4828188D1*
X2991976Y4846438D1*
X3119445Y4846440D1*
X4510703Y3362639D2*
Y3417249D1*
X4504526Y3435499D1*
X4498490Y3441676D1*
X4486417Y3447712D1*
X4474203D1*
X4462130Y3441676D1*
X4455953Y3435499D1*
X4449917Y3417249D1*
Y3362639D1*
X4577526D1*
X4510703Y3405176D2*
X4577526Y3447712D1*
X4480380Y3493105D2*
X4474344D1*
X4462130Y3499141D1*
X4456094Y3505178D1*
X4450057Y3517391D1*
Y3541678D1*
X4456094Y3553751D1*
X4462130Y3559788D1*
X4474344Y3565965D1*
X4486417D1*
X4498630Y3559788D1*
X4516740Y3547715D1*
X4577526Y3486928D1*
Y3572001D1*
X4494540Y4664376D2*
Y4718986D1*
X4488363Y4737236D1*
X4482327Y4743412D1*
X4470254Y4749449D1*
X4458040D1*
X4445967Y4743412D1*
X4439790Y4737236D1*
X4433754Y4718986D1*
Y4664376D1*
X4561363D1*
X4494540Y4706912D2*
X4561363Y4749449D1*
X4433894Y4800878D2*
Y4867561D1*
X4482467Y4831201D1*
Y4849451D1*
X4488504Y4861524D1*
X4494540Y4867561D1*
X4512790Y4873738D1*
X4524863D1*
X4543113Y4867561D1*
X4555327Y4855488D1*
X4561363Y4837238D1*
Y4818988D1*
X4555327Y4800878D1*
X4549150Y4794842D1*
X4537077Y4788665D1*
X3024803Y3359621D2*
Y3414231D1*
X3018626Y3432481D1*
X3012590Y3438657D1*
X3000517Y3444694D1*
X2988303D1*
X2976230Y3438657D1*
X2970053Y3432481D1*
X2964017Y3414231D1*
Y3359621D1*
X3091626D1*
X3024803Y3402157D2*
X3091626Y3444694D1*
Y3544696D2*
X2964157D1*
X3049090Y3483910D1*
Y3575019D1*
X6150823Y4648499D2*
Y4703109D1*
X6144646Y4721359D1*
X6138610Y4727536D1*
X6126537Y4733572D1*
X6114323D1*
X6102250Y4727536D1*
X6096073Y4721359D1*
X6090037Y4703109D1*
Y4648499D1*
X6217646D1*
X6150823Y4691036D2*
X6217646Y4733572D1*
X6090177Y4845648D2*
Y4785001D1*
X6144787Y4778965D1*
X6138750Y4785001D1*
X6132573Y4803251D1*
Y4821361D1*
X6138750Y4839611D1*
X6150823Y4851825D1*
X6169073Y4857861D1*
X6181146D1*
X6199396Y4851825D1*
X6211610Y4839611D1*
X6217646Y4821361D1*
Y4803251D1*
X6211610Y4785001D1*
X6205433Y4778965D1*
X6193360Y4772788D1*
X6166983Y3365728D2*
Y3420337D1*
X6160806Y3438587D1*
X6154770Y3444764D1*
X6142697Y3450801D1*
X6130483D1*
X6118410Y3444764D1*
X6112233Y3438587D1*
X6106197Y3420337D1*
Y3365728D1*
X6233806D1*
X6166983Y3408264D2*
X6233806Y3450801D1*
X6124447Y3562876D2*
X6112374Y3556840D1*
X6106337Y3538590D1*
Y3526516D1*
X6112374Y3508266D1*
X6130624Y3496053D1*
X6160947Y3490016D1*
X6191270D1*
X6215556Y3496053D1*
X6227770Y3508266D1*
X6233806Y3526516D1*
Y3532553D1*
X6227770Y3550663D1*
X6215556Y3562876D1*
X6197306Y3568913D1*
X6191270D1*
X6173020Y3562876D1*
X6160947Y3550663D1*
X6154910Y3532553D1*
Y3526516D1*
X6160947Y3508266D1*
X6173020Y3496053D1*
X6191270Y3490016D1*
M02*
